<svg width="276" height="277" xmlns="http://www.w3.org/2000/svg" xmlns:xlink="http://www.w3.org/1999/xlink" xml:space="preserve" overflow="hidden"><defs><clipPath id="clip0"><rect x="104" y="17" width="276" height="277"/></clipPath></defs><g clip-path="url(#clip0)" transform="translate(-104 -17)"><path d="M61.8125 146.625C51.4915 146.625 43.125 154.992 43.125 165.312 43.125 175.633 51.4915 184 61.8125 184 72.1335 184 80.5 175.633 80.5 165.312 80.5 154.992 72.1335 146.625 61.8125 146.625Z" fill="#FFFFFF" transform="matrix(-1 1.22465e-16 1.22908e-16 1.00362 380 17)"/><path d="M266.547 147.292C265.266 146.322 264.052 145.266 262.916 144.13 258.678 139.297 251.85 131.689 244.375 128.119 224.362 118.548 192.625 116.107 192.625 116.107 176.783 106.271 160.257 97.5818 143.175 90.1054 141.231 89.2797 138.974 89.8705 137.684 91.5429 136.139 93.6411 136.587 96.5942 138.685 98.1393 138.908 98.3032 139.144 98.4469 139.392 98.5694 146.839 102.686 154.053 107.211 161 112.125L155.126 112.125C152.019 112.125 149.5 114.644 149.5 117.751L116.274 117.751C115.598 117.753 114.924 117.688 114.261 117.559L112.125 117.142 112.125 106.683C112.189 103.794 110.173 101.274 107.341 100.703 104.21 100.169 101.24 102.274 100.707 105.405 100.652 105.725 100.625 106.05 100.625 106.375L100.625 114.914 86.25 112.125 72.5794 109.845C69.1446 109.268 65.6311 109.356 62.2294 110.104 59.2739 110.762 56.258 111.628 54.6135 112.116 44.2836 115.25 18.308 124.292 10.8646 129.366 5.24975 133.196 8.51863 155.675 8.51863 155.675L5.75 159.163 5.67238 161.48C5.56347 164.742 7.75508 167.634 10.925 168.412L13.9725 169.165C18.675 170.09 23.4451 170.629 28.2354 170.778L35.1584 171.166C33.8646 165.452 34.5101 159.47 36.9926 154.163 43.1115 140.418 59.2149 134.235 72.9609 140.353 82.8147 144.74 89.1529 154.527 89.125 165.312 89.1253 168.127 88.6889 170.924 87.8312 173.604L191.044 173.604C186.387 159.245 194.252 143.829 208.611 139.172 222.97 134.515 238.386 142.38 243.042 156.739 244.443 161.058 244.746 165.657 243.924 170.122L270.25 170.122 270.25 154.839C270.243 151.887 268.877 149.104 266.547 147.292Z" fill="#FFFFFF" transform="matrix(-1 1.22465e-16 1.22908e-16 1.00362 380 17)"/><path d="M217.062 146.625C206.742 146.625 198.375 154.992 198.375 165.312 198.375 175.633 206.742 184 217.062 184 227.383 184 235.75 175.633 235.75 165.312 235.75 154.992 227.383 146.625 217.062 146.625Z" fill="#FFFFFF" transform="matrix(-1 1.22465e-16 1.22908e-16 1.00362 380 17)"/></g></svg>