<svg width="400" height="120" viewBox="0 0 400 120" fill="none" xmlns="http://www.w3.org/2000/svg">
<path d="M61.5336 30.9774C61.2582 30.8421 60.9433 30.8102 60.6464 30.8875C60.4986 30.9385 60.3669 31.0276 60.2646 31.1458C60.1683 31.2766 60.0995 31.4256 60.0624 31.5838C59.9652 31.904 59.946 32.2429 60.0063 32.5721C60.0129 32.6917 60.0431 32.8088 60.0952 32.9167C60.1472 33.0247 60.22 33.1213 60.3095 33.2009C60.46 33.2843 60.6325 33.3196 60.8036 33.302C61.0033 33.276 61.1992 33.227 61.3876 33.156L63.2069 32.471L63.5887 32.3138L63.0721 31.9207C62.5889 31.5604 62.0739 31.2446 61.5336 30.9774Z" fill="white"/>
<path d="M117.92 11.4707C116.715 8.98453 114.987 6.78764 112.855 5.02984C110.723 3.27205 108.237 1.9947 105.567 1.28492C102.157 0.380444 98.6391 -0.0503458 95.1117 0.00467591C88.6838 0.082543 82.2697 0.622988 75.9193 1.62182C70.8578 2.32228 65.8464 3.34633 60.9158 4.68766C59.5008 5.08072 58.0858 5.50747 56.6933 5.9679C51.6365 7.76399 46.7065 9.89882 41.9368 12.3579C40.8138 12.9044 39.6908 13.4659 38.5677 14.0424C36.1092 15.3342 33.7315 16.7743 31.4478 18.3548C30.5831 18.9612 29.7296 19.5901 28.8986 20.2415C24.834 23.4321 21.1388 27.067 17.8817 31.0786C14.5859 35.1451 11.7183 39.5406 9.32434 44.1954C6.99212 48.7141 5.07511 53.4352 3.59695 58.3006C2.78207 60.9349 2.11101 63.6117 1.58675 66.3189C-1.11973 79.9074 -0.67052 94.181 5.33763 104.187C11.6041 114.631 23.5418 118.595 35.8613 119.595C49.1126 120.489 62.4205 119.184 75.2455 115.732C87.5987 112.542 103.063 107.433 111.833 94.3944C115.977 88.2402 117.449 81.3337 118.167 74.8089C118.987 67.0826 119.358 59.4123 119.908 51.7421C120.447 44.3751 121.166 36.9295 121.155 29.6973C121.177 23.2175 120.503 16.7152 117.92 11.4707ZM85.5998 25.0255C88.3287 24.7335 90.8106 24.4865 93.4609 24.3068C94.8163 24.3537 96.1503 24.6586 97.3915 25.2052C95.9315 26.1485 94.6513 27.3277 92.8432 27.586C88.6881 28.2037 83.5783 28.9449 80.2879 29.4053C81.6917 26.7887 83.7019 25.2164 85.5998 25.0255ZM60.6463 26.3507C61.7677 23.4182 62.3755 20.3145 62.4431 17.1756C62.954 17.4498 63.3744 17.8663 63.6535 18.3746C63.9325 18.8828 64.0582 19.4611 64.0153 20.0393C64.0153 20.5335 64.0153 20.8367 64.4196 20.8591C64.7915 20.8637 65.1513 20.992 65.4421 21.2239C65.7329 21.4557 65.9382 21.7778 66.0256 22.1394C65.5429 22.1467 65.073 22.2953 64.6738 22.5667C64.2747 22.8381 63.9638 23.2205 63.7795 23.6667C63.4426 24.4191 63.7795 24.7897 64.1389 24.9918C64.4982 25.194 65.0934 25.2614 66.0031 24.172C65.8009 25.5758 66.3063 25.9689 66.632 26.1149C66.9577 26.2608 67.5192 26.2496 67.8561 25.486C68.0665 25.058 68.1467 24.5777 68.0868 24.1047C68.0269 23.6316 67.8296 23.1864 67.5192 22.8244C67.6764 22.5733 67.9004 22.3709 68.1663 22.24C68.4321 22.109 68.7291 22.0548 69.024 22.0832C69.6529 22.2517 69.9786 21.8249 70.3267 21.1623C70.5373 20.8163 70.8508 20.5448 71.2233 20.3857C71.5958 20.2267 72.0087 20.188 72.4043 20.2752C72.7467 20.5123 73.0045 20.8527 73.1398 21.2466C73.2752 21.6406 73.2811 22.0675 73.1567 22.465C72.8984 23.1613 72.7974 23.6891 73.3364 24.0597C73.5546 24.258 73.7117 24.5144 73.7893 24.7989C73.8669 25.0833 73.8617 25.384 73.7744 25.6656C73.2913 25.6647 72.819 25.8086 72.4186 26.0789C72.0182 26.3492 71.7081 26.7333 71.5283 27.1817C71.1802 27.9454 71.5283 28.3047 71.8765 28.5181C72.2246 28.7315 72.831 28.7764 73.7407 27.6983C73.5385 29.0909 74.0439 29.4839 74.3696 29.6411C74.6953 29.7984 75.2568 29.7647 75.5937 29.0122C75.8041 28.5843 75.8843 28.104 75.8244 27.6309C75.7645 27.1578 75.5672 26.7127 75.2568 26.3507C75.5863 26.1753 75.9647 26.1143 76.3326 26.1774C76.7005 26.2404 77.0371 26.4238 77.2894 26.6988C77.6151 27.0133 77.806 26.7774 78.1654 26.4518C78.5766 26.0347 79.1006 25.7466 79.6731 25.623C80.2456 25.4993 80.8417 25.5453 81.3884 25.7555C79.0992 27.893 77.1992 30.4124 75.7734 33.2011C75.7344 33.2814 75.666 33.3437 75.5824 33.3751C75.4988 33.4064 75.4063 33.4044 75.3241 33.3696L73.0781 32.3813C73.2688 32.1278 73.3933 31.8307 73.4403 31.517C73.4874 31.2033 73.4555 30.8828 73.3476 30.5845C73.1646 30.2442 72.8968 29.9568 72.5702 29.7503C72.2437 29.5437 71.8693 29.4249 71.4834 29.4053C71.1674 29.3577 70.8484 29.3315 70.5289 29.3267C69.6377 29.3154 68.7616 29.5568 68.0021 30.023H67.9234L64.1164 28.3272L60.7474 26.7999C60.6767 26.7518 60.6269 26.6787 60.6081 26.5952C60.5893 26.5118 60.603 26.4244 60.6463 26.3507ZM46.2604 24.5988C47.1251 24.4865 47.9899 24.3629 48.8658 24.3068C49.2364 24.3068 49.7193 24.1833 49.9888 24.61C50.2584 25.0368 49.8204 25.2614 49.5621 25.5197C49.2275 25.8413 49.0303 26.28 49.0118 26.7437C48.9444 28.7203 49.214 28.9224 51.2579 28.6866C53.3017 28.4507 56.3451 28.1475 57.996 27.9791C58.0485 28.2957 58.0326 28.6199 57.9493 28.9298C57.866 29.2398 57.7173 29.5283 57.5131 29.7759C56.4904 31.058 55.0528 31.9435 53.4477 32.2802C53.0884 32.3364 50.4717 32.5385 50.2696 32.6171C50.1826 32.6504 50.1073 32.7086 50.0534 32.7846C49.9994 32.8605 49.9691 32.9508 49.9664 33.0439C49.8606 33.495 49.8755 33.9661 50.0096 34.4096C50.1437 34.8532 50.3921 35.2536 50.73 35.5707C51.0669 35.8514 51.7071 35.93 51.5049 36.5365C51.3702 36.9632 50.6963 37.0194 50.2247 37.0643C49.4161 37.1541 48.6749 37.1878 47.8551 37.2777C47.5856 37.2777 47.2824 37.4012 47.1251 37.0755C47.0534 36.9548 47.0276 36.8124 47.0523 36.6742C47.0771 36.536 47.1508 36.4114 47.2599 36.3231C48.2145 35.6156 48.0123 34.6273 47.9 33.6728C47.653 31.6626 47.361 29.6636 47.1476 27.6534C47.1526 27.2776 47.0521 26.9079 46.8576 26.5863C46.663 26.2647 46.3822 26.0041 46.0471 25.8341C45.8954 25.7821 45.7656 25.6809 45.6781 25.5466C45.5906 25.4123 45.5505 25.2526 45.5642 25.0929C45.5642 24.7111 45.9684 24.6325 46.2604 24.5988ZM45.07 50.3608C45.0939 50.5772 45.1352 50.7912 45.1936 51.0009C45.2886 51.2427 45.3527 51.4955 45.3845 51.7534C45.3845 51.7534 45.3845 51.8207 45.3845 51.8544C45.3845 51.8881 45.3845 52.1913 45.1711 52.2026C45.0285 52.2036 44.8884 52.1647 44.7668 52.0903C44.5759 51.978 44.385 51.8881 44.1828 51.7871L42.0716 50.664L40.0164 49.6196C39.8519 49.5429 39.7145 49.4181 39.6223 49.2618C39.5301 49.1054 39.4874 48.9248 39.4998 48.7437C39.4998 47.688 39.41 46.6212 39.3089 45.5768C39.2416 44.7345 39.5672 44.5324 40.2298 44.9928C42.2512 46.3741 43.9245 45.9361 45.3957 44.1168C45.5865 43.8682 45.805 43.6421 46.0471 43.443C46.7096 42.9489 47.5182 43.6002 47.945 43.9147C49.4723 45.0377 48.484 45.7115 47.5631 46.3966L47.3161 46.565C46.9489 46.7786 46.6029 47.0268 46.2829 47.3062C45.9918 47.5525 45.7383 47.84 45.5305 48.1597C45.3272 48.4634 45.1824 48.8023 45.1037 49.1592C45.0205 49.5545 45.0091 49.9615 45.07 50.3608ZM46.5861 48.9458C47.0516 48.2244 47.7142 47.6515 48.4952 47.295C49.6182 46.6773 49.6182 46.4415 51.7408 47.5533C52.2822 47.7445 52.7736 48.0555 53.1782 48.4629C53.5376 49.0918 52.7739 49.2153 52.3135 50.1025C52.1275 50.4385 51.9661 50.7876 51.8306 51.1469C51.6004 51.7981 51.4643 52.4788 51.4263 53.1684C51.3365 54.4037 50.8985 54.1679 50.0675 53.7636C50.0675 53.7636 47.8214 52.6405 47.5182 52.4609C47.1283 52.1365 46.8528 51.6957 46.7321 51.2031C46.5564 50.8563 46.4529 50.4774 46.4278 50.0894C46.4027 49.7014 46.4565 49.3124 46.5861 48.9458ZM53.1221 43.2072C52.5678 43.2325 52.0221 43.0635 51.5792 42.7293C51.1363 42.3951 50.824 41.9166 50.6963 41.3767C50.5279 40.2537 51.2691 39.4114 52.6392 38.8499C51.7071 40.5456 52.5156 41.7585 54.6606 41.4665C56.2109 41.0812 57.7937 40.8406 59.3885 40.7478C59.9261 40.7171 60.4617 40.8363 60.9356 41.0921C61.4095 41.3479 61.8031 41.7302 62.0725 42.1965C59.7254 41.1521 57.7938 41.9943 55.8061 42.6681C54.959 43.0337 54.0446 43.2173 53.1221 43.2072ZM35.4121 29.5625C36.6923 29.4278 36.9506 29.1807 37.0854 28.6641C37.1034 28.3424 37.2213 28.0343 37.4225 27.7827C37.6238 27.5312 37.8985 27.3485 38.2084 27.2603C39.1068 27.002 39.7469 28.024 39.7469 28.024C39.7773 27.7833 39.8792 27.5573 40.0393 27.3752C40.1995 27.193 40.4106 27.063 40.6453 27.002C41.555 26.7887 42.3074 27.9005 42.3074 27.9005C42.3074 27.9005 42.2176 27.2716 43.2058 27.002C43.4147 26.9399 43.6371 26.9399 43.8459 27.002C44.1669 27.1416 44.4401 27.3719 44.632 27.6646C44.8142 27.9185 44.9475 28.2041 45.0251 28.5069C45.0251 28.7203 45.1149 28.9336 45.1486 29.1358L45.2497 29.7085C45.2497 29.9331 45.3283 30.1577 45.3732 30.3936C45.4182 30.6294 45.4406 30.8877 45.4855 31.1347L45.5866 31.9096L45.654 32.6845V33.4145C45.6652 33.6352 45.6652 33.8563 45.654 34.0771C45.6464 34.2652 45.6277 34.4527 45.5978 34.6386C45.57 34.7784 45.5247 34.9142 45.4631 35.0429C44.823 36.3231 44.9577 37.6033 45.3395 39.9167C45.7214 42.2302 44.5871 44.2067 42.7791 44.5211C42.4462 44.5952 42.1012 44.5952 41.7683 44.5211C41.423 44.4044 41.0916 44.25 40.7801 44.0607C40.5218 43.881 39.4325 43.0837 39.2752 42.2302C38.9608 40.5007 38.579 37.244 38.4218 36.514C38.3209 36.2408 38.2457 35.9589 38.1971 35.6717C38.1971 35.5482 38.287 35.4696 38.5228 35.391C38.5228 35.391 39.4212 35.1888 39.7357 35.0878L40.9822 34.7172C42.2625 34.3353 43.5203 33.0663 43.1609 31.8984C42.8914 31.0112 42.3186 31.2021 42.2625 31.393C42.1699 31.8317 41.9518 32.234 41.6348 32.551C41.3178 32.868 40.9155 33.086 40.4769 33.1786C39.5785 33.3134 39.3539 32.1567 39.3539 32.1567C39.3683 32.2968 39.353 32.4384 39.3089 32.5722C39.2193 32.736 39.0959 32.8788 38.9468 32.9911C38.7977 33.1034 38.6263 33.1826 38.4442 33.2236C38.2758 33.2797 36.8944 33.538 36.8271 33.5605C36.7597 33.5829 36.8271 34.0097 36.8271 34.0658C36.8944 34.3129 36.9169 34.56 36.6137 34.661C36.5357 34.6749 36.4559 34.6749 36.3779 34.661C35.5072 34.643 34.653 34.4198 33.8848 34.0097C33.5322 33.7713 33.2481 33.4448 33.061 33.0625C32.8738 32.6803 32.79 32.2557 32.8179 31.831C32.7281 30.708 34.1318 29.6861 35.4121 29.5625ZM76.7616 102.042C67.3282 104.041 58.7035 101.716 50.4717 97.1907C50.3257 97.1121 47.9786 95.7757 47.6867 95.7083C47.5463 95.6749 47.3993 95.6814 47.2624 95.7271C47.1255 95.7727 47.0041 95.8557 46.9118 95.9666C46.5839 96.2096 46.3562 96.564 46.2714 96.9632C46.1866 97.3623 46.2506 97.7787 46.4513 98.134C46.5697 98.33 46.6469 98.5481 46.6781 98.775C46.7094 99.0018 46.6941 99.2326 46.6331 99.4533C46.5722 99.6741 46.4668 99.88 46.3236 100.059C46.1803 100.237 46.0022 100.385 45.8 100.492C45.43 100.72 44.9877 100.801 44.5611 100.718C44.1345 100.634 43.7549 100.394 43.4978 100.043C43.2103 99.7154 43.0518 99.2943 43.0518 98.8584C43.0518 98.4224 43.2103 98.0013 43.4978 97.6736C44.0363 96.8719 44.6174 96.0997 45.2385 95.3602C45.6315 94.8773 45.508 94.6077 44.969 94.3382C42.7229 93.2152 40.5779 92.0023 38.3544 90.8906C37.0517 90.2392 36.5014 90.4863 35.9848 91.9125C35.7811 92.4926 35.6528 93.0965 35.603 93.7093C35.6007 93.731 35.5936 93.7519 35.5822 93.7705C35.5708 93.7891 35.5554 93.8049 35.5371 93.8168C35.5188 93.8286 35.498 93.8362 35.4764 93.839C35.4548 93.8418 35.4328 93.8397 35.4121 93.8329C32.8291 92.8222 31.65 91.059 32.6719 88.4536C33.1956 87.212 34.177 86.2196 35.4128 85.6822C36.6485 85.1448 38.0437 85.1037 39.3089 85.5675C39.7581 85.7696 40.1287 85.8482 39.702 86.5108C38.7025 88.1055 39.1742 88.9477 41.2293 89.8798C42.1277 90.2617 42.0266 90.2729 41.9593 89.5317C41.802 87.8472 41.8694 86.6343 44.1379 84.4781C43.0823 84.3097 41.2068 84.2198 40.7689 83.5236C39.7357 81.8503 38.8934 82.0749 37.4784 82.7711C37.7479 80.4352 40.5779 79.1887 43.9133 79.4021C44.1604 79.4021 44.5197 79.4695 44.4973 79.1101C44.4748 78.7507 43.3743 78.1892 42.7117 77.8186C42.4434 77.7022 42.231 77.4857 42.1199 77.2152C42.0087 76.9446 42.0075 76.6414 42.1165 76.3699C42.824 75.0223 41.1844 74.2699 40.387 74.2474C42.9587 72.3383 47.7316 74.2474 48.9669 77.886C49.3263 79.009 49.5621 80.132 49.9552 81.1764C50.5391 82.7824 51.2354 83.108 52.7852 82.715C54.9022 82.2783 56.8504 81.2458 58.4003 79.739C58.9709 79.1997 59.4004 78.5285 59.6511 77.7845C59.9017 77.0404 59.9658 76.2462 59.8377 75.4715C59.7142 74.6966 59.6243 73.9217 59.4671 73.1581C59.0179 71.0468 59.4671 69.9463 61.4436 69.0142C64.2174 67.8962 67.0563 66.9473 69.9449 66.1729C70.4502 66.0045 70.6973 66.1729 70.8995 66.667C71.7642 68.4976 72.6177 70.3281 73.5498 72.1362C73.9428 72.911 73.5498 73.0683 72.9546 73.2592C70.9781 73.7308 69.024 74.2474 67.0587 74.7079C66.048 74.9325 65.6662 75.4154 65.9357 76.471C66.2308 77.6702 66.606 78.8483 67.0587 79.9973C67.7213 81.8615 67.4293 82.4342 65.6325 83.1754C63.51 84.0626 61.4099 85.0059 59.2874 85.8931C58.9915 85.9947 58.7296 86.1766 58.5313 86.4186C58.3329 86.6606 58.2059 86.9531 58.1644 87.2632C57.6254 90.1831 53.9082 92.1596 52.0664 92.0922C52.6265 91.5981 53.0309 90.9518 53.2302 90.232C53.4296 89.5122 53.4155 88.75 53.1894 88.0381C53.0387 87.5529 52.7907 87.1035 52.4605 86.7173C52.1304 86.3312 51.725 86.0163 51.2691 85.7921C49.023 84.7364 47.0016 85.7921 45.8449 88.6333C45.5783 88.4297 45.2652 88.2957 44.9338 88.2433C44.6025 88.191 44.2633 88.2219 43.9469 88.3333C43.6305 88.4447 43.3467 88.6331 43.1213 88.8816C42.8959 89.13 42.7358 89.4306 42.6555 89.7563C42.4197 90.3627 42.6555 90.374 43.116 90.5986L46.6535 92.0922C46.9005 92.1933 47.1701 92.3617 47.4059 92.0922C47.5305 91.9872 47.6128 91.8405 47.6376 91.6795C47.6623 91.5184 47.6279 91.3539 47.5407 91.2162C47.3015 90.8359 47.1731 90.3965 47.1701 89.9472C47.1889 89.6346 47.2945 89.3335 47.475 89.0776C47.6556 88.8217 47.9038 88.6211 48.192 88.4985C48.5391 88.3032 48.9451 88.24 49.3352 88.3205C49.7253 88.4009 50.0731 88.6197 50.3145 88.9365C50.6034 89.2342 50.7723 89.6279 50.7889 90.0423C50.8054 90.4568 50.6685 90.8628 50.4044 91.1825C49.9776 91.7777 48.922 92.3056 49.2813 92.9569C49.3972 93.1093 49.5472 93.2324 49.7193 93.3163C51.6509 94.2147 65.0261 98.1116 74.6616 95.7757C75.4701 99.1447 78.9964 99.7287 82.051 99.7849C80.457 100.884 78.6582 101.652 76.7616 102.042ZM93.9999 89.8461C93.7416 92.0922 93.0005 93.3612 91.4731 94.1922C91.5844 93.8262 91.5844 93.4353 91.4731 93.0692C91.4461 92.9041 91.3825 92.7472 91.287 92.6098C91.1916 92.4725 91.0666 92.3582 90.9213 92.2753C90.776 92.1925 90.614 92.1431 90.4472 92.1308C90.2804 92.1186 90.1129 92.1437 89.9571 92.2045C89.272 92.5414 89.0137 94.6976 88.7105 95.5735C88.1715 97.1008 87.6549 97.3367 86.0939 96.8538C85.7321 97.8506 85.7006 98.9373 86.0041 99.9533C85.171 99.2961 84.5006 98.4558 84.0449 97.4976C83.5892 96.5393 83.3603 95.489 83.3762 94.4281C82.6799 94.866 82.0847 95.2591 81.4671 95.6297C81.0291 95.888 80.5799 96.2586 80.0408 95.9666C78.1991 94.9671 77.7948 96.3035 77.4017 97.4041C76.2113 95.158 77.222 92.474 79.6478 90.666C79.8948 90.4638 79.5018 90.2729 79.2547 90.2392C78.5584 90.1718 76.8065 90.374 76.6493 89.9135C76.1889 88.5098 75.0771 88.3525 73.9091 88.9365C74.3022 86.2974 77.7948 84.8824 80.8269 85.5675C81.8532 85.8283 82.8236 86.2735 83.6906 86.8814C84.6164 87.5738 85.6817 88.0566 86.8126 88.2964C87.0234 88.3598 87.2462 88.3727 87.463 88.3342C87.6797 88.2956 87.8844 88.2066 88.0604 88.0743C88.2364 87.942 88.3788 87.7702 88.4761 87.5727C88.5734 87.3753 88.623 87.1577 88.6207 86.9375C88.8531 85.4435 88.5221 83.9164 87.692 82.6527C86.862 81.3889 85.592 80.4786 84.1286 80.0984C82.8698 79.816 81.6431 79.4059 80.4676 78.8743C78.8864 78.2035 77.621 76.9542 76.9301 75.3817C75.5038 72.1811 73.9316 69.0591 72.438 65.8809C72.3396 65.5821 72.148 65.3227 71.8913 65.1408C71.6346 64.9589 71.3263 64.864 71.0117 64.8702C68.7352 64.7529 66.477 64.3991 64.2736 63.8146C62.9646 63.4791 61.782 62.7687 60.8709 61.7707C60.6692 61.5251 60.4005 61.3434 60.0975 61.2477C59.7944 61.152 59.4701 61.1464 59.1639 61.2316C55.4916 61.8942 51.8194 62.5343 48.1359 63.1071C47.3834 63.2306 47.1925 63.6574 46.9455 64.2301C46.6066 65.1037 45.9701 65.8295 45.1482 66.2795C44.3263 66.7295 43.3719 66.8747 42.4534 66.6895C42.7791 66.4761 43.5764 65.9146 42.9026 65.0836C41.8806 63.837 41.8806 63.8033 40.8475 65.0836C39.5672 66.6783 38.6014 66.8804 36.8495 65.8248C36.3105 65.4991 35.5356 66.0831 35.6254 67.3184C34.2666 65.7125 34.7046 64.3312 35.8837 61.7931C34.9965 61.7145 32.8179 61.9953 32.4585 61.1306C31.7735 59.5022 30.3922 59.6594 29.0895 60.6027C29.8307 57.8963 32.9527 56.4925 36.1982 56.7059C35.5468 55.6502 33.3008 55.1673 33.604 54.0219C34.042 52.371 33.1548 51.5512 32.0093 51.6972C33.3232 49.4512 38.4554 51.3154 40.1287 54.2352C40.6004 55.0797 40.9233 55.999 41.0833 56.9529C41.0988 57.2213 41.1719 57.4832 41.2975 57.7209C41.4231 57.9586 41.5984 58.1665 41.8114 58.3305C42.0244 58.4945 42.2702 58.6109 42.5321 58.6716C42.794 58.7323 43.0659 58.736 43.3293 58.6824C49.169 58.0872 55.8959 55.8973 57.4681 52.6293C55.413 53.7523 55.0424 52.9325 53.8633 53.5727C53.5468 53.7242 53.2728 53.9519 53.0659 54.2352C52.9546 53.8065 52.9054 53.364 52.9199 52.9213C53.021 51.5063 53.8183 50.6753 54.9975 49.395C55.166 49.2153 55.5927 48.8784 55.3344 48.7437C53.56 47.7891 55.3344 47.3287 55.4579 45.9586C55.4137 45.5648 55.4594 45.1661 55.5917 44.7926C55.724 44.4191 55.9394 44.0805 56.2216 43.8024C56.6923 44.4308 57.3076 44.9366 58.0152 45.2767C58.7229 45.6169 59.5021 45.7814 60.2869 45.7564C61.0261 45.7557 61.7459 45.5197 62.342 45.0826C63.206 44.4205 63.8415 43.505 64.1597 42.464C64.4778 41.423 64.4627 40.3086 64.1164 39.2766C63.9871 38.7174 63.6953 38.209 63.2776 37.8153C62.86 37.4216 62.3352 37.1603 61.7693 37.0643C61.1909 36.9351 60.5878 36.9719 60.0295 37.1706C59.4712 37.3693 58.9803 37.7218 58.6136 38.1873C58.3372 38.5591 58.1211 38.9722 57.9735 39.4114C57.8526 39.2332 57.6966 39.0815 57.5151 38.9657C57.3336 38.8498 57.1304 38.7722 56.9179 38.7376C56.1205 38.5691 55.3007 38.3333 55.1772 37.491C55.1546 37.2262 55.0745 36.9695 54.9426 36.7387C54.8108 36.5079 54.6302 36.3086 54.4135 36.1546C53.7846 35.6605 54.0317 35.0316 54.5371 34.4813C55.5253 33.4482 56.8505 32.3813 57.9061 31.393C58.7111 30.7024 59.3194 29.8114 59.6693 28.8101C59.8826 28.0801 60.1971 27.9117 60.9495 28.2823C62.8923 29.2144 64.8913 30.0454 66.8566 30.9551C67.1251 31.1259 67.4367 31.2167 67.755 31.2167C68.0733 31.2167 68.3849 31.1259 68.6534 30.9551C69.4549 30.4823 70.4027 30.3223 71.315 30.5059C72.1235 30.6294 72.6626 30.8989 72.0112 31.7973C71.3599 32.6957 71.6294 33.1899 72.6738 33.5492C73.7241 33.9528 74.7514 34.4139 75.7509 34.9305C75.0995 36.2782 73.7295 35.4921 72.9995 36.6263C73.6719 36.8909 74.3248 37.2023 74.9535 37.5584C75.6043 37.9279 76.1257 38.4886 76.4472 39.1643C76.0305 39.1053 75.6058 39.18 75.2343 39.3777C74.5426 40.0081 73.7389 40.5033 72.8647 40.8376C73.6446 41.2113 74.5053 41.385 75.3691 41.343C75.7586 41.3475 76.1436 41.2589 76.4921 41.0847C76.7113 41.5017 76.7938 41.9771 76.7279 42.4435C76.6451 43.0491 76.4043 43.6222 76.0297 44.1051C75.6552 44.5881 75.1601 44.964 74.5942 45.1949C74.1025 45.4045 73.6002 45.5882 73.0893 45.7452C73.6961 46.2434 74.1835 46.8712 74.5158 47.5825C74.8482 48.2937 75.0169 49.0704 75.0097 49.8555C75.0441 50.7627 74.7262 51.648 74.1225 52.3261C72.2166 51.1338 69.9702 50.6048 67.7325 50.8213C68.2042 52.7528 70.2369 55.1898 71.1016 56.1444C71.3546 55.0311 72.0366 54.0626 72.9995 53.4491C73.7772 56.7562 75.7539 59.6573 78.5472 61.591C79.5996 62.1998 80.7343 62.6537 81.9163 62.9386C82.874 63.1292 83.8562 63.1633 84.8249 63.0397C86.576 62.729 88.158 61.8018 89.2848 60.4258C90.4115 59.0498 91.0086 57.3159 90.9678 55.5379C90.8949 54.1553 90.4528 52.8174 89.6875 51.6635C89.6734 51.6519 89.6621 51.6374 89.6543 51.6209C89.6465 51.6044 89.6424 51.5863 89.6424 51.5681C89.6424 51.5498 89.6465 51.5318 89.6543 51.5153C89.6621 51.4988 89.6734 51.4842 89.6875 51.4726C90.2041 51.2929 91.9336 51.4726 92.3603 52.1913C93.377 54.3466 93.5404 56.8068 92.8175 59.0776C92.0946 61.3484 90.539 63.2614 88.4635 64.4322C87.0049 65.1596 85.4452 65.6632 83.8366 65.9259C83.7645 65.9297 83.6943 65.9513 83.6326 65.9889C83.5708 66.0264 83.5193 66.0786 83.4826 66.1409C83.4459 66.2031 83.4252 66.2735 83.4223 66.3457C83.4194 66.4179 83.4344 66.4897 83.466 66.5547C83.5334 66.7569 86.0265 74.3597 86.2174 74.8875C87.0372 77.1336 87.8683 77.4593 90.1143 76.6956C93.2924 75.5726 94.1684 76.2127 94.1684 79.6491C94.3022 83.0486 94.246 86.4529 93.9999 89.8461ZM96.4369 46.1832C95.1842 47.8 93.4173 48.9409 91.4282 49.4175C90.9341 49.541 88.0592 50.0464 86.6891 50.3608C85.9257 50.5085 85.2368 50.9158 84.7395 51.5135C84.2421 52.1111 83.9667 52.8625 83.9602 53.64C83.9388 54.2283 84.0861 54.8103 84.3845 55.3177C84.683 55.8251 85.1202 56.2366 85.6447 56.5037C85.5773 57.2337 83.9152 57.8401 83.0505 57.3123C82.4155 56.8398 81.9888 56.1392 81.8601 55.3582C81.8601 55.3582 80.4114 55.4593 80.7371 57.4471C80.3107 57.3546 79.9205 57.14 79.6141 56.8294C79.3896 56.6245 79.2126 56.3731 79.0954 56.0927C78.9782 55.8123 78.9235 55.5097 78.9353 55.206C78.947 54.9024 79.0249 54.6049 79.1635 54.3344C79.3021 54.064 79.498 53.827 79.7376 53.64C79.7376 53.64 78.5247 53.4379 78.7606 52.3261C78.7542 52.2852 78.7542 52.2435 78.7606 52.2026C78.8592 51.8788 79.0323 51.5827 79.2659 51.3378C79.6178 50.952 80.0269 50.6225 80.4788 50.3608C80.8012 50.1585 81.1392 49.982 81.4895 49.833C83.5696 48.9496 85.7381 48.2908 87.9581 47.8677C89.2506 47.633 90.5179 47.2758 91.7427 46.8008C92.4729 46.5435 93.142 46.1379 93.708 45.6096C94.274 45.0812 94.7246 44.4416 95.0315 43.7307C95.3384 43.0199 95.4949 42.2533 95.4913 41.479C95.4878 40.7048 95.3241 39.9397 95.0107 39.2317C94.3805 37.7731 93.2088 36.6161 91.7424 36.0044C90.276 35.3927 88.6294 35.3741 87.1495 35.9525C83.5671 37.3001 82.4665 40.3547 83.7243 43.3869C84.1961 44.5659 84.9251 45.6248 85.858 46.4864C85.8745 46.5036 85.8862 46.5249 85.8917 46.5481C85.8973 46.5713 85.8967 46.5955 85.8898 46.6183C85.883 46.6412 85.8702 46.6618 85.8528 46.6781C85.8353 46.6943 85.8139 46.7057 85.7907 46.711C83.3986 47.3174 82.2869 46.4864 81.4334 44.5997C79.0638 39.4563 82.0061 34.2792 87.8907 33.2348C88.9899 33.0139 90.1224 33.0187 91.2196 33.2487C92.3169 33.4788 93.3559 33.9294 94.2738 34.5731C95.1917 35.2169 95.9691 36.0404 96.5591 36.9937C97.1491 37.947 97.5392 39.0102 97.7059 40.1189C97.9129 41.1631 97.9073 42.2384 97.6892 43.2803C97.4712 44.3223 97.0452 45.3096 96.4369 46.1832ZM400 79.3796H397.934V76.6058H395.968V79.3796H393.936V81.008H395.968V89.8461H397.934V81.008H400V79.3796ZM388.669 79.0652C387.985 79.0449 387.308 79.1992 386.701 79.5136C386.094 79.828 385.577 80.2921 385.199 80.862L385.008 79.4021H383.402V89.8461H385.367V83.6359C385.349 83.2629 385.41 82.8904 385.546 82.5426C385.681 82.1948 385.889 81.8796 386.155 81.6177C386.421 81.3558 386.74 81.1531 387.09 81.0229C387.44 80.8926 387.813 80.8378 388.186 80.862C389.612 80.862 390.589 81.6706 390.589 83.8268V89.8461H392.577V83.3551C392.577 80.5812 390.982 79.0652 388.669 79.0652ZM372.947 83.7818C372.945 83.3621 373.031 82.9467 373.198 82.5614C373.364 82.1762 373.609 81.8295 373.915 81.5428C374.222 81.2562 374.584 81.0359 374.98 80.8955C375.376 80.7552 375.796 80.6979 376.214 80.7272C376.62 80.706 377.026 80.7706 377.405 80.9169C377.784 81.0632 378.128 81.2878 378.414 81.5762C378.7 81.8645 378.922 82.21 379.066 82.5901C379.209 82.9702 379.271 83.3763 379.247 83.7818H372.947ZM381.257 86.6905H379.336C379.079 87.2676 378.65 87.7511 378.107 88.0747C377.564 88.3984 376.934 88.5464 376.304 88.4985C375.863 88.5203 375.422 88.4507 375.008 88.2941C374.595 88.1375 374.218 87.8972 373.902 87.5884C373.586 87.2795 373.337 86.9087 373.17 86.4991C373.004 86.0895 372.924 85.65 372.935 85.2081H381.156C381.229 84.8157 381.259 84.4166 381.246 84.0177C381.277 83.3523 381.168 82.6877 380.925 82.0674C380.682 81.4471 380.311 80.8849 379.836 80.4176C379.362 79.9503 378.794 79.5883 378.17 79.3553C377.546 79.1222 376.879 79.0234 376.214 79.0652C374.794 79.1374 373.455 79.7549 372.478 80.789C371.501 81.8232 370.961 83.1944 370.97 84.617C370.978 86.0397 371.536 87.4041 372.525 88.4263C373.515 89.4485 374.86 90.0496 376.282 90.1044C377.368 90.1926 378.451 89.9064 379.352 89.2935C380.253 88.6806 380.917 87.7779 381.234 86.7354M365.119 79.0652C364.411 79.042 363.712 79.2306 363.112 79.6067C362.512 79.9827 362.038 80.5293 361.75 81.1764C361.469 80.5857 361.036 80.0799 360.496 79.7105C359.956 79.3412 359.328 79.1213 358.675 79.0734C358.023 79.0255 357.369 79.1512 356.781 79.4378C356.193 79.7243 355.691 80.1614 355.326 80.7048L355.192 79.3796H353.428V89.8461H355.405V83.4225C355.384 83.0849 355.431 82.7465 355.545 82.4279C355.658 82.1093 355.836 81.8172 356.066 81.5693C356.296 81.3213 356.574 81.1228 356.883 80.9858C357.192 80.8487 357.526 80.7761 357.864 80.7722C358.196 80.7567 358.528 80.8152 358.835 80.9433C359.141 81.0715 359.416 81.2661 359.638 81.5133C359.861 81.7604 360.025 82.0537 360.121 82.3723C360.216 82.6908 360.239 83.0265 360.189 83.3551V89.8461H362.132V83.4449C362.107 83.1018 362.154 82.7572 362.268 82.4329C362.383 82.1086 362.564 81.8116 362.799 81.5606C363.034 81.3095 363.319 81.1099 363.635 80.9742C363.951 80.8385 364.292 80.7697 364.636 80.7722C365.995 80.7722 366.882 81.5583 366.882 83.3551V89.8461H368.825V82.9284C368.879 82.4204 368.82 81.907 368.655 81.4239C368.489 80.9408 368.219 80.4999 367.865 80.1319C367.511 79.7638 367.081 79.4777 366.605 79.2934C366.128 79.1092 365.617 79.0313 365.108 79.0652M346.769 79.0652C346.093 79.0536 345.425 79.212 344.827 79.526C344.228 79.84 343.718 80.2994 343.344 80.862L343.153 79.4021H341.524V89.8461H343.49V83.6359C343.472 83.2629 343.532 82.8904 343.668 82.5426C343.804 82.1948 344.012 81.8796 344.278 81.6177C344.544 81.3558 344.863 81.1531 345.212 81.0229C345.562 80.8926 345.936 80.8378 346.309 80.862C347.735 80.862 348.701 81.6706 348.701 83.8268V89.8461H350.688V83.3551C350.688 80.5812 349.105 79.0652 346.78 79.0652M330.171 84.6129C330.197 83.9048 330.432 83.2203 330.845 82.6448C331.259 82.0693 331.832 81.6284 332.495 81.3771C333.157 81.1259 333.879 81.0755 334.57 81.2321C335.261 81.3888 335.891 81.7457 336.38 82.2581C336.87 82.7706 337.197 83.4159 337.322 84.1134C337.446 84.8109 337.363 85.5296 337.081 86.1799C336.8 86.8301 336.333 87.383 335.739 87.7694C335.145 88.1558 334.45 88.3587 333.742 88.3525C333.258 88.3547 332.779 88.2581 332.333 88.0688C331.888 87.8794 331.486 87.6012 331.152 87.2512C330.817 86.9012 330.558 86.4867 330.389 86.0331C330.221 85.5795 330.146 85.0962 330.171 84.6129ZM328.127 84.6129C328.113 85.7262 328.431 86.8184 329.04 87.7506C329.649 88.6828 330.521 89.413 331.546 89.8483C332.571 90.2837 333.702 90.4045 334.796 90.1955C335.889 89.9866 336.896 89.4572 337.688 88.6746C338.48 87.8921 339.021 86.8918 339.244 85.8007C339.466 84.7097 339.359 83.5773 338.936 82.5473C338.513 81.5174 337.793 80.6364 336.868 80.0164C335.944 79.3963 334.855 79.0653 333.742 79.0652C333.002 79.034 332.263 79.1556 331.573 79.4225C330.882 79.6894 330.253 80.0957 329.726 80.6163C329.199 81.1368 328.785 81.7604 328.51 82.448C328.235 83.1356 328.105 83.8726 328.127 84.6129ZM326.487 79.2785C325.915 79.2295 325.342 79.3672 324.854 79.6708C324.366 79.9744 323.99 80.4278 323.781 80.9631L323.545 79.3796H321.815V89.8461H323.781V84.2311C323.781 81.985 325.14 80.7722 327.475 81.0978V79.3796C327.151 79.3105 326.819 79.2766 326.487 79.2785ZM317.02 89.8461H318.997V79.4021H317.02V89.8461ZM317.997 76.8416C318.189 76.8462 318.379 76.8119 318.557 76.7407C318.735 76.6696 318.896 76.563 319.032 76.4276C319.167 76.2921 319.274 76.1306 319.345 75.9527C319.416 75.7749 319.451 75.5844 319.446 75.3929C319.449 75.2043 319.414 75.017 319.341 74.8428C319.269 74.6686 319.161 74.5112 319.026 74.3804C318.889 74.2497 318.728 74.1485 318.551 74.0831C318.374 74.0177 318.186 73.9895 317.997 74.0004C317.81 73.9928 317.623 74.0232 317.447 74.0898C317.272 74.1564 317.111 74.2578 316.976 74.3878C316.841 74.5179 316.733 74.674 316.66 74.8467C316.586 75.0194 316.548 75.2052 316.549 75.3929C316.545 75.584 316.581 75.7737 316.653 75.9509C316.724 76.128 316.831 76.2889 316.966 76.424C317.101 76.5592 317.262 76.6658 317.439 76.7375C317.616 76.8092 317.806 76.8446 317.997 76.8416ZM304.959 79.4021L309.17 89.8461H311.136L315.493 79.4021H313.438L312.135 82.6925C311.472 84.3434 310.192 87.7573 310.192 87.7573C310.192 87.7573 308.979 84.3883 308.317 82.6925L307.093 79.4021H304.959ZM300.085 79.0876C299.409 79.0706 298.74 79.2243 298.139 79.5345C297.539 79.8446 297.026 80.3012 296.649 80.862L296.458 79.4021H294.818V89.8461H296.783V83.6359C296.765 83.2629 296.826 82.8904 296.962 82.5426C297.098 82.1948 297.306 81.8796 297.572 81.6177C297.838 81.3558 298.156 81.1531 298.506 81.0229C298.856 80.8926 299.23 80.8378 299.602 80.862C301.028 80.862 301.994 81.6706 301.994 83.8268V89.8461H303.993V83.3551C303.993 80.5812 302.398 79.0652 300.085 79.0652M292.595 76.5608V74.6405H283.217V89.8461H292.595V87.9258H285.25V83.108H291.887V81.2887H285.25V76.5608H292.595ZM266.866 83.7818C266.865 83.3621 266.951 82.9467 267.117 82.5614C267.284 82.1762 267.528 81.8295 267.835 81.5428C268.142 81.2562 268.504 81.0359 268.9 80.8955C269.295 80.7552 269.715 80.6979 270.134 80.7272C270.54 80.706 270.945 80.7706 271.325 80.9169C271.704 81.0632 272.047 81.2878 272.334 81.5762C272.62 81.8645 272.842 82.21 272.985 82.5901C273.129 82.9702 273.191 83.3763 273.166 83.7818H266.866ZM275.177 86.6905H273.267C273.009 87.2666 272.579 87.7491 272.036 88.0726C271.494 88.396 270.865 88.5448 270.235 88.4985C269.794 88.5203 269.352 88.4507 268.939 88.2941C268.526 88.1375 268.149 87.8972 267.833 87.5884C267.517 87.2795 267.267 86.9087 267.101 86.4991C266.935 86.0895 266.855 85.65 266.866 85.2081H275.087C275.16 84.8157 275.19 84.4166 275.177 84.0177C275.207 83.3553 275.099 82.6937 274.858 82.0759C274.617 81.458 274.249 80.8976 273.778 80.4308C273.307 79.964 272.744 79.6013 272.124 79.3661C271.504 79.1308 270.841 79.0283 270.179 79.0652C268.758 79.1386 267.42 79.7574 266.444 80.7926C265.468 81.8278 264.929 83.1996 264.939 84.6224C264.949 86.0452 265.508 87.4092 266.499 88.4304C267.489 89.4516 268.836 90.0512 270.258 90.1044C271.342 90.1899 272.423 89.9025 273.321 89.2898C274.22 88.6771 274.882 87.7759 275.199 86.7354M253.615 89.8461H255.58V83.6359C255.566 83.2603 255.632 82.886 255.772 82.5374C255.913 82.1888 256.125 81.8735 256.395 81.612C256.665 81.3505 256.987 81.1486 257.34 81.0194C257.692 80.8902 258.069 80.8366 258.444 80.862C259.634 80.862 260.836 81.4797 260.836 83.8268V89.8461H262.79V83.3551C262.79 80.5812 261.274 79.0652 258.938 79.0652C258.276 79.0453 257.62 79.1936 257.03 79.496C256.441 79.7984 255.938 80.2452 255.569 80.7946V73.5736H253.603L253.615 89.8461ZM252.02 79.4021H249.965V76.6058H247.999V79.3796H245.944V81.008H247.988V89.8461H249.954V81.008H252.009L252.02 79.4021ZM238.735 75.1346C238.991 75.1295 239.247 75.1521 239.498 75.202V73.5736C239.128 73.5023 238.752 73.4685 238.375 73.4725C236.298 73.4725 235.006 74.4271 235.006 76.909V79.3796H233.108V81.008H235.006V89.8461H236.96V81.008H239.521V79.3796H236.96V77.2908C236.96 76.3924 236.96 75.1346 238.757 75.1346M223.158 84.6129C223.185 83.9053 223.419 83.2212 223.832 82.6459C224.245 82.0706 224.818 81.6297 225.48 81.3781C226.142 81.1265 226.863 81.0754 227.554 81.2311C228.244 81.3869 228.874 81.7426 229.364 82.254C229.854 82.7653 230.182 83.4096 230.308 84.1063C230.434 84.8031 230.352 85.5216 230.072 86.1721C229.792 86.8225 229.327 87.3762 228.735 87.764C228.142 88.1517 227.449 88.3564 226.741 88.3525C226.256 88.3562 225.775 88.2608 225.329 88.0721C224.882 87.8834 224.478 87.6055 224.143 87.2553C223.808 86.9052 223.547 86.4902 223.378 86.0358C223.209 85.5814 223.134 85.0972 223.158 84.6129ZM221.126 84.6129C221.112 85.7262 221.43 86.8184 222.039 87.7506C222.648 88.6828 223.52 89.413 224.545 89.8483C225.57 90.2837 226.701 90.4045 227.794 90.1955C228.888 89.9866 229.895 89.4572 230.687 88.6746C231.479 87.8921 232.02 86.8918 232.242 85.8007C232.465 84.7097 232.357 83.5773 231.935 82.5473C231.512 81.5174 230.792 80.6364 229.867 80.0164C228.942 79.3963 227.854 79.0653 226.741 79.0652C226.001 79.034 225.262 79.1556 224.571 79.4225C223.88 79.6894 223.252 80.0957 222.725 80.6163C222.198 81.1368 221.784 81.7604 221.509 82.448C221.234 83.1356 221.103 83.8726 221.126 84.6129ZM212.389 79.3796L209.188 87.9033L205.897 79.3796H203.786L208.278 90.3627L207.908 91.3622C207.802 91.8648 207.514 92.3104 207.099 92.6132C206.685 92.916 206.173 93.0544 205.662 93.0018C205.216 92.9888 204.772 92.9324 204.337 92.8334V94.4393C204.871 94.5886 205.422 94.6679 205.976 94.6751C208.076 94.6751 209.053 93.5521 209.738 91.8564L214.5 79.3796H212.389ZM201.9 79.2785C201.327 79.2295 200.754 79.3672 200.266 79.6708C199.778 79.9744 199.402 80.4278 199.193 80.9631L198.957 79.3796H197.205V89.8461H199.171V84.2311C199.171 81.985 200.529 80.7722 202.865 81.0978V79.3796C202.541 79.3105 202.209 79.2766 201.877 79.2785M195.622 79.3796H193.556V76.6058H191.59V79.3796H189.558V81.008H191.59V89.8461H193.556V81.008H195.622V79.3796ZM184.291 90.1044C186.851 90.1044 188.479 88.8467 188.479 86.8589C188.489 86.1394 188.229 85.4422 187.752 84.9041C187.274 84.366 186.612 84.0258 185.897 83.9503L183.797 83.4786C183.179 83.3326 182.303 83.0968 182.303 82.0749C182.303 81.0529 183.055 80.5812 184.223 80.5812C184.478 80.5469 184.737 80.5649 184.985 80.6344C185.233 80.7039 185.464 80.8233 185.664 80.9853C185.863 81.1473 186.028 81.3484 186.147 81.5763C186.266 81.8043 186.338 82.0542 186.357 82.3107H188.266C188.199 80.3679 186.615 79.0652 184.246 79.0652C181.876 79.0652 180.315 80.323 180.315 82.2433C180.315 83.5909 181.068 84.6803 182.988 85.107L184.83 85.5338C185.526 85.6798 186.447 85.9605 186.447 87.0498C186.447 88.1392 185.616 88.5884 184.291 88.5884C182.965 88.5884 182.045 87.9932 181.944 86.9038H180.023C180.147 88.8467 181.854 90.1044 184.291 90.1044ZM175.924 89.8461H177.889V79.4021H175.924V89.8461ZM176.89 76.8416C177.081 76.8462 177.272 76.8119 177.45 76.7407C177.628 76.6696 177.789 76.563 177.925 76.4276C178.06 76.2921 178.167 76.1306 178.238 75.9527C178.309 75.7749 178.343 75.5844 178.339 75.3929C178.342 75.2043 178.306 75.017 178.234 74.8428C178.162 74.6686 178.054 74.5112 177.918 74.3804C177.782 74.2497 177.621 74.1485 177.444 74.0831C177.267 74.0177 177.078 73.9895 176.89 74.0004C176.702 73.9928 176.515 74.0232 176.34 74.0898C176.164 74.1564 176.004 74.2578 175.869 74.3878C175.733 74.5179 175.626 74.674 175.552 74.8467C175.479 75.0194 175.441 75.2052 175.441 75.3929C175.438 75.584 175.474 75.7737 175.545 75.9509C175.617 76.128 175.724 76.2889 175.859 76.424C175.994 76.5592 176.155 76.6658 176.332 76.7375C176.509 76.8092 176.699 76.8446 176.89 76.8416ZM169.321 79.0876C168.645 79.0717 167.976 79.2258 167.376 79.5359C166.775 79.8459 166.263 80.3019 165.884 80.862L165.693 79.4021H164.065V89.8461H166.03V83.6359C166.012 83.2629 166.073 82.8904 166.209 82.5426C166.345 82.1948 166.552 81.8796 166.819 81.6177C167.085 81.3558 167.403 81.1531 167.753 81.0229C168.103 80.8926 168.477 80.8378 168.849 80.862C170.275 80.862 171.241 81.6706 171.241 83.8268V89.8461H173.229V83.3551C173.229 80.5812 171.645 79.0652 169.321 79.0652M159.281 89.8461H161.246V79.4021H159.281V89.8461ZM160.258 76.8416C160.453 76.8496 160.647 76.817 160.829 76.7457C161.01 76.6745 161.175 76.5662 161.312 76.4278C161.45 76.2894 161.557 76.1239 161.626 75.9419C161.696 75.7598 161.727 75.5652 161.718 75.3704C161.723 75.1824 161.689 74.9953 161.618 74.8211C161.547 74.6469 161.44 74.4894 161.305 74.3585C161.17 74.2276 161.009 74.1261 160.833 74.0606C160.656 73.9951 160.468 73.9669 160.28 73.9779C160.093 73.9703 159.906 74.0007 159.73 74.0673C159.555 74.1339 159.395 74.2353 159.259 74.3654C159.124 74.4954 159.016 74.6515 158.943 74.8242C158.869 74.997 158.832 75.1827 158.832 75.3704C158.829 75.5615 158.864 75.7513 158.936 75.9284C159.008 76.1055 159.114 76.2664 159.249 76.4016C159.384 76.5367 159.545 76.6433 159.723 76.715C159.9 76.7868 160.089 76.8222 160.28 76.8191M154.34 74.6405L149.062 87.0723L143.828 74.6405H141.885V89.8461H143.896V84.9161C143.896 82.5465 143.828 80.8957 143.682 79.1326L148.062 89.3969H149.982L154.474 79.0427C154.373 80.7497 154.306 82.2882 154.306 84.9161V89.8461H156.316V74.6629L154.34 74.6405ZM282.544 55.0326H280.477V52.2363H278.512V55.0326H276.479V56.661H278.512V65.4766H280.477V56.6385H282.544V55.0326ZM267.282 59.4123C267.281 58.9926 267.366 58.5772 267.533 58.1919C267.7 57.8067 267.944 57.4599 268.25 57.1733C268.557 56.8867 268.92 56.6664 269.315 56.526C269.711 56.3857 270.131 56.3284 270.55 56.3577C270.955 56.3365 271.361 56.4011 271.74 56.5474C272.119 56.6937 272.463 56.9183 272.749 57.2067C273.035 57.495 273.258 57.8405 273.401 58.2206C273.544 58.6007 273.606 59.0068 273.582 59.4123H267.282ZM275.592 62.3322H273.672C273.414 62.9082 272.984 63.3903 272.441 63.712C271.898 64.0338 271.269 64.1795 270.64 64.129C270.199 64.1475 269.759 64.0756 269.347 63.9178C268.935 63.76 268.56 63.5196 268.244 63.2114C267.929 62.9032 267.68 62.5337 267.512 62.1257C267.345 61.7176 267.262 61.2796 267.27 60.8386H275.491C275.64 60.1091 275.628 59.356 275.456 58.6316C275.284 57.9072 274.957 57.229 274.496 56.6442C274.035 56.0594 273.452 55.5821 272.788 55.2456C272.124 54.9091 271.395 54.7214 270.651 54.6957C269.933 54.6732 269.218 54.802 268.553 55.0738C267.888 55.3456 267.288 55.7542 266.791 56.2732C266.294 56.7922 265.912 57.4099 265.67 58.0861C265.427 58.7624 265.33 59.4821 265.384 60.1985C265.328 60.9167 265.425 61.6386 265.666 62.3174C265.908 62.9961 266.289 63.6165 266.785 64.1385C267.282 64.6605 267.883 65.0723 268.549 65.3473C269.214 65.6223 269.931 65.7544 270.651 65.7349C271.736 65.821 272.819 65.534 273.72 64.9214C274.62 64.3088 275.285 63.4073 275.603 62.3659M261.217 65.4879H263.183V55.0326H261.217V65.4879ZM262.183 52.4833C262.375 52.4879 262.565 52.4536 262.743 52.3825C262.921 52.3113 263.082 52.2047 263.218 52.0693C263.353 51.9338 263.46 51.7723 263.531 51.5944C263.602 51.4166 263.637 51.2261 263.632 51.0346C263.635 50.846 263.6 50.6587 263.527 50.4845C263.455 50.3103 263.348 50.1529 263.211 50.0222C263.076 49.8914 262.914 49.7902 262.737 49.7248C262.56 49.6594 262.372 49.6312 262.183 49.6421C261.997 49.6361 261.811 49.6676 261.636 49.7349C261.462 49.8022 261.303 49.9038 261.169 50.0337C261.035 50.1636 260.929 50.3192 260.856 50.4911C260.783 50.6631 260.746 50.8479 260.746 51.0346C260.743 51.2248 260.778 51.4136 260.849 51.5899C260.92 51.7663 261.025 51.9267 261.159 52.0617C261.293 52.1967 261.453 52.3035 261.629 52.3759C261.805 52.4483 261.993 52.4848 262.183 52.4833ZM258.679 54.9427C258.108 54.8944 257.537 55.0324 257.051 55.3361C256.565 55.6398 256.191 56.0928 255.984 56.6273L255.771 55.0326H254.041V65.4766H256.052V59.8616C256.052 57.6155 257.399 56.4027 259.746 56.7396V55.0326C259.417 54.9691 259.082 54.9353 258.747 54.9315M243.597 59.4236C243.596 59.0038 243.682 58.5884 243.848 58.2032C244.015 57.8179 244.259 57.4712 244.566 57.1846C244.873 56.8979 245.235 56.6776 245.631 56.5373C246.026 56.3969 246.447 56.3396 246.865 56.369C247.271 56.3477 247.677 56.4123 248.056 56.5586C248.435 56.7049 248.778 56.9296 249.065 57.2179C249.351 57.5062 249.573 57.8517 249.717 58.2318C249.86 58.6119 249.922 59.018 249.897 59.4236H243.597ZM251.919 62.3434H249.998C249.739 62.9185 249.309 63.3996 248.766 63.7211C248.224 64.0427 247.595 64.189 246.966 64.1403C246.525 64.1604 246.085 64.0896 245.672 63.9324C245.259 63.7752 244.883 63.5349 244.568 63.2263C244.252 62.9178 244.002 62.5476 243.836 62.1388C243.669 61.73 243.588 61.2913 243.597 60.8498H251.818C251.891 60.4575 251.921 60.0583 251.908 59.6594C251.938 58.997 251.83 58.3355 251.589 57.7176C251.348 57.0998 250.98 56.5393 250.509 56.0725C250.038 55.6058 249.475 55.243 248.855 55.0078C248.235 54.7725 247.572 54.67 246.91 54.7069C246.193 54.6842 245.478 54.813 244.814 55.0849C244.149 55.3568 243.55 55.7657 243.054 56.2849C242.558 56.8041 242.177 57.4219 241.936 58.0982C241.695 58.7744 241.599 59.4939 241.654 60.2097C241.598 60.9338 241.696 61.6616 241.942 62.3452C242.187 63.0287 242.575 63.6526 243.079 64.1756C243.582 64.6986 244.191 65.109 244.865 65.3797C245.539 65.6504 246.263 65.7753 246.989 65.7462C248.074 65.8301 249.156 65.5423 250.056 64.93C250.956 64.3177 251.621 63.4174 251.941 62.3771M240.79 55.0326H238.723V52.2363H236.758V55.0326H234.714V56.661H236.747V65.4766H238.712V56.6385H240.778L240.79 55.0326ZM229.458 65.7574C232.019 65.7574 233.647 64.5108 233.647 62.5119C233.657 61.7923 233.397 61.0951 232.919 60.557C232.442 60.019 231.78 59.6788 231.064 59.6033L228.953 59.1316C228.347 58.9856 227.471 58.7498 227.471 57.7278C227.471 56.7059 228.223 56.2342 229.38 56.2342C230.537 56.2342 231.469 56.8743 231.514 57.9637H233.434C233.367 56.0208 231.783 54.7181 229.414 54.7181C227.044 54.7181 225.472 55.9759 225.472 57.8963C225.472 59.2439 226.235 60.3332 228.156 60.76L229.997 61.1867C230.683 61.3327 231.615 61.6135 231.615 62.7028C231.615 63.7921 230.784 64.2413 229.458 64.2413C228.133 64.2413 227.212 63.6574 227.111 62.568H225.191C225.314 64.5108 227.01 65.7574 229.458 65.7574ZM221.081 65.4766H223.057V55.0326H221.081V65.4766ZM222.058 52.4721C222.249 52.4738 222.439 52.4365 222.616 52.3626C222.793 52.2887 222.953 52.1796 223.086 52.0421C223.219 51.9045 223.323 51.7413 223.392 51.5623C223.46 51.3834 223.492 51.1924 223.484 51.0009C223.487 50.8123 223.452 50.625 223.379 50.4508C223.307 50.2766 223.2 50.1192 223.064 49.9885C222.928 49.8577 222.766 49.7565 222.589 49.6911C222.412 49.6257 222.224 49.5975 222.035 49.6084C221.848 49.6024 221.662 49.6339 221.487 49.7011C221.312 49.7682 221.153 49.8697 221.018 49.9994C220.883 50.1292 220.775 50.2846 220.701 50.4566C220.627 50.6286 220.588 50.8137 220.587 51.0009C220.584 51.192 220.619 51.3818 220.691 51.5589C220.762 51.736 220.869 51.8969 221.004 52.0321C221.139 52.1672 221.3 52.2738 221.477 52.3455C221.654 52.4173 221.844 52.4527 222.035 52.4496M214.466 54.6957C213.79 54.6809 213.12 54.8368 212.519 55.1488C211.919 55.4609 211.407 55.9191 211.03 56.4813L210.861 55.0326H209.233V65.4542H211.198V59.2664C211.176 58.8921 211.235 58.5174 211.369 58.1674C211.504 57.8175 211.711 57.5001 211.978 57.2366C212.245 56.9731 212.564 56.7694 212.916 56.6392C213.268 56.509 213.643 56.4551 214.017 56.4813C215.432 56.4813 216.409 57.2786 216.409 59.4348V65.4542H218.397V58.9856C218.397 56.2117 216.813 54.6957 214.489 54.6957M204.449 65.4542H206.414V55.0326H204.449V65.4542ZM205.415 52.4496C205.607 52.4559 205.798 52.4227 205.976 52.3521C206.155 52.2815 206.317 52.175 206.453 52.0392C206.589 51.9034 206.695 51.7412 206.766 51.5626C206.836 51.384 206.87 51.1929 206.863 51.0009C206.867 50.8123 206.831 50.625 206.759 50.4508C206.686 50.2766 206.579 50.1192 206.443 49.9885C206.307 49.8577 206.145 49.7565 205.968 49.6911C205.791 49.6257 205.603 49.5975 205.415 49.6084C205.228 49.6024 205.042 49.6339 204.868 49.7012C204.694 49.7685 204.535 49.8701 204.401 50C204.267 50.1299 204.16 50.2855 204.087 50.4575C204.014 50.6294 203.977 50.8142 203.977 51.0009C203.974 51.1911 204.009 51.3799 204.08 51.5563C204.151 51.7326 204.257 51.893 204.391 52.028C204.525 52.163 204.684 52.2698 204.86 52.3422C205.036 52.4146 205.224 52.4512 205.415 52.4496ZM198.003 54.6957C197.295 54.674 196.597 54.8632 195.997 55.2391C195.397 55.615 194.923 56.1607 194.634 56.8069C194.354 56.216 193.923 55.7098 193.384 55.3401C192.844 54.9703 192.217 54.7503 191.565 54.7023C190.913 54.6543 190.26 54.7802 189.672 55.0671C189.085 55.354 188.584 55.7916 188.221 56.3353L188.053 55.0326H186.301V65.4766H188.266V59.053C188.245 58.7154 188.292 58.377 188.406 58.0584C188.519 57.7398 188.697 57.4477 188.927 57.1998C189.157 56.9518 189.435 56.7533 189.744 56.6163C190.053 56.4792 190.387 56.4066 190.726 56.4027C191.058 56.3872 191.389 56.4457 191.696 56.5738C192.003 56.702 192.277 56.8966 192.499 57.1437C192.722 57.3909 192.887 57.6843 192.982 58.0028C193.077 58.3213 193.1 58.657 193.05 58.9856V65.4766H194.993V59.0867C194.966 58.7417 195.012 58.3949 195.127 58.0685C195.242 57.7421 195.423 57.4432 195.66 57.1907C195.896 56.9382 196.183 56.7378 196.501 56.6021C196.82 56.4665 197.163 56.3985 197.509 56.4027C198.856 56.4027 199.755 57.1888 199.755 58.9856V65.4766H201.697V58.5589C201.751 58.0509 201.693 57.5375 201.527 57.0544C201.361 56.5714 201.092 56.1304 200.738 55.7623C200.384 55.3943 199.953 55.1082 199.477 54.9239C199.001 54.7397 198.49 54.6618 197.98 54.6957M174.913 60.2434C174.946 59.5404 175.184 58.8625 175.598 58.2932C176.012 57.7239 176.583 57.2881 177.241 57.0396C177.9 56.791 178.616 56.7406 179.303 56.8946C179.99 57.0485 180.616 57.4001 181.105 57.9059C181.595 58.4117 181.925 59.0496 182.056 59.7411C182.187 60.4325 182.113 61.1471 181.843 61.7968C181.572 62.4466 181.118 63.003 180.535 63.3974C179.952 63.7919 179.267 64.0072 178.563 64.0167C178.079 64.0189 177.6 63.9223 177.155 63.733C176.709 63.5436 176.307 63.2654 175.973 62.9154C175.639 62.5654 175.379 62.1509 175.211 61.6973C175.042 61.2437 174.968 60.7604 174.992 60.2771M172.948 60.2771C172.935 61.3904 173.253 62.4826 173.862 63.4148C174.47 64.347 175.343 65.0772 176.367 65.5125C177.392 65.9479 178.523 66.0687 179.617 65.8597C180.71 65.6507 181.717 65.1214 182.509 64.3388C183.301 63.5563 183.843 62.5559 184.065 61.4649C184.287 60.3739 184.18 59.2415 183.757 58.2115C183.334 57.1815 182.615 56.3006 181.69 55.6806C180.765 55.0605 179.677 54.7294 178.563 54.7294C177.823 54.6982 177.085 54.8198 176.394 55.0867C175.703 55.3535 175.074 55.7599 174.548 56.2805C174.021 56.801 173.607 57.4246 173.332 58.1122C173.056 58.7998 172.926 59.5368 172.948 60.2771ZM180.551 53.7636C180.704 53.7728 180.857 53.7505 181.001 53.6982C181.146 53.6459 181.277 53.5647 181.389 53.4594C181.501 53.3542 181.589 53.2273 181.65 53.0865C181.711 52.9456 181.742 52.7939 181.741 52.6405C181.758 52.4737 181.739 52.3054 181.686 52.1463C181.633 51.9873 181.548 51.841 181.435 51.7169C181.322 51.5928 181.185 51.4937 181.032 51.4258C180.879 51.3579 180.713 51.3229 180.545 51.3229C180.378 51.3229 180.212 51.3579 180.059 51.4258C179.906 51.4937 179.768 51.5928 179.656 51.7169C179.543 51.841 179.458 51.9873 179.405 52.1463C179.352 52.3054 179.333 52.4737 179.349 52.6405C179.349 52.7949 179.38 52.9476 179.442 53.0893C179.503 53.2309 179.593 53.3584 179.706 53.4638C179.818 53.5692 179.952 53.6502 180.097 53.7017C180.242 53.7533 180.397 53.7744 180.551 53.7636ZM176.575 53.7636C176.885 53.7727 177.185 53.6602 177.412 53.4501C177.638 53.2401 177.774 52.9494 177.788 52.6405C177.788 52.3189 177.661 52.0104 177.433 51.7829C177.206 51.5555 176.897 51.4277 176.575 51.4277C176.254 51.4277 175.945 51.5555 175.718 51.7829C175.49 52.0104 175.363 52.3189 175.363 52.6405C175.377 52.9494 175.513 53.2401 175.739 53.4501C175.966 53.6602 176.266 53.7727 176.575 53.7636ZM168.905 70.1596H170.871V55.0326H168.905V70.1596ZM169.871 52.4833C170.063 52.4879 170.253 52.4536 170.431 52.3825C170.609 52.3113 170.77 52.2047 170.906 52.0693C171.041 51.9338 171.148 51.7723 171.219 51.5944C171.29 51.4166 171.324 51.2261 171.32 51.0346C171.323 50.846 171.288 50.6587 171.215 50.4845C171.143 50.3103 171.035 50.1529 170.899 50.0222C170.763 49.8914 170.602 49.7902 170.425 49.7248C170.248 49.6594 170.059 49.6312 169.871 49.6421C169.684 49.6361 169.497 49.6676 169.323 49.7347C169.148 49.8019 168.988 49.9033 168.853 50.0331C168.718 50.1629 168.611 50.3183 168.537 50.4903C168.463 50.6623 168.424 50.8474 168.422 51.0346C168.419 51.2257 168.455 51.4155 168.526 51.5926C168.598 51.7697 168.705 51.9306 168.84 52.0658C168.975 52.2009 169.136 52.3075 169.313 52.3792C169.49 52.451 169.68 52.4864 169.871 52.4833ZM164.11 65.4879H166.075V49.2041H164.11V65.4879ZM159.337 65.4879H161.302V55.0326H159.337V65.4879ZM160.314 52.4833C160.505 52.4836 160.695 52.4449 160.87 52.3695C161.046 52.2941 161.204 52.1836 161.336 52.0448C161.467 51.906 161.569 51.7418 161.635 51.5623C161.7 51.3828 161.729 51.1918 161.718 51.0009C161.723 50.8129 161.689 50.6258 161.618 50.4516C161.547 50.2774 161.44 50.1199 161.305 49.989C161.17 49.8581 161.009 49.7566 160.833 49.6911C160.656 49.6256 160.468 49.5974 160.28 49.6084C160.093 49.6024 159.907 49.6339 159.732 49.7011C159.557 49.7682 159.398 49.8697 159.263 49.9994C159.128 50.1292 159.02 50.2846 158.946 50.4566C158.872 50.6286 158.833 50.8137 158.832 51.0009C158.829 51.192 158.864 51.3818 158.936 51.5589C159.008 51.736 159.114 51.8969 159.249 52.0321C159.384 52.1672 159.545 52.2738 159.723 52.3455C159.9 52.4173 160.089 52.4527 160.28 52.4496M154.34 50.271L149.062 62.7028L143.828 50.271H141.885V65.4542H143.896V60.5466C143.896 58.177 143.828 56.5262 143.682 54.7743L148.062 65.0274H149.982L154.474 54.6732C154.373 56.3802 154.306 57.9187 154.306 60.5466V65.4542H156.316V50.2934L154.34 50.271ZM319.277 35.8739C319.25 35.3843 319.323 34.8943 319.491 34.4338C319.66 33.9734 319.921 33.5521 320.258 33.1958C320.594 32.8396 321 32.5558 321.451 32.3618C321.901 32.1679 322.386 32.0679 322.877 32.0679C323.367 32.0679 323.852 32.1679 324.303 32.3618C324.753 32.5558 325.159 32.8396 325.496 33.1958C325.833 33.5521 326.094 33.9734 326.262 34.4338C326.431 34.8943 326.503 35.3843 326.476 35.8739C326.503 36.3635 326.431 36.8535 326.262 37.3139C326.094 37.7744 325.833 38.1957 325.496 38.5519C325.159 38.9082 324.753 39.192 324.303 39.3859C323.852 39.5799 323.367 39.6799 322.877 39.6799C322.386 39.6799 321.901 39.5799 321.451 39.3859C321 39.192 320.594 38.9082 320.258 38.5519C319.921 38.1957 319.66 37.7744 319.491 37.3139C319.323 36.8535 319.25 36.3635 319.277 35.8739ZM317.234 35.8739C317.218 36.9877 317.534 38.0809 318.141 39.0146C318.749 39.9483 319.62 40.6802 320.645 41.1173C321.669 41.5543 322.801 41.6768 323.895 41.4691C324.989 41.2614 325.997 40.7329 326.79 39.9509C327.584 39.1688 328.126 38.1685 328.349 37.0772C328.573 35.9859 328.466 34.8529 328.043 33.8222C327.621 32.7916 326.901 31.91 325.976 31.2895C325.051 30.6689 323.963 30.3375 322.849 30.3374C322.11 30.3063 321.372 30.4276 320.682 30.6938C319.992 30.96 319.364 31.3654 318.837 31.8847C318.311 32.404 317.896 33.0262 317.62 33.7125C317.345 34.3988 317.213 35.1345 317.234 35.8739ZM324.848 29.3604C325.085 29.3555 325.315 29.2799 325.509 29.1432C325.703 29.0065 325.852 28.815 325.936 28.5932C326.02 28.3714 326.036 28.1295 325.982 27.8985C325.928 27.6675 325.806 27.458 325.632 27.2968C325.458 27.1356 325.24 27.0301 325.005 26.9938C324.771 26.9576 324.531 26.9922 324.316 27.0933C324.101 27.1944 323.922 27.3573 323.801 27.5611C323.679 27.765 323.621 28.0005 323.635 28.2374C323.634 28.3927 323.666 28.5465 323.728 28.6889C323.79 28.8314 323.881 28.9594 323.995 29.065C324.109 29.1705 324.243 29.2513 324.39 29.3021C324.537 29.353 324.693 29.3728 324.848 29.3604ZM320.861 29.3604C321.099 29.3578 321.33 29.284 321.526 29.1486C321.721 29.0133 321.871 28.8225 321.957 28.6008C322.044 28.3792 322.061 28.1369 322.008 27.9051C321.955 27.6733 321.834 27.4627 321.661 27.3003C321.487 27.138 321.269 27.0314 321.034 26.9943C320.799 26.9571 320.558 26.9912 320.343 27.092C320.128 27.1928 319.948 27.3558 319.826 27.5599C319.704 27.764 319.646 28 319.659 28.2374C319.659 28.3917 319.69 28.5444 319.752 28.6861C319.813 28.8277 319.903 28.9552 320.015 29.0606C320.128 29.166 320.262 29.247 320.407 29.2986C320.552 29.3501 320.707 29.3712 320.861 29.3604ZM313.191 41.0847H315.156V30.6406H313.191V41.0847ZM314.156 28.0801C314.345 28.0802 314.532 28.0425 314.706 27.9693C314.88 27.8961 315.037 27.7888 315.169 27.6539C315.301 27.5189 315.405 27.3589 315.474 27.1833C315.543 27.0077 315.576 26.8201 315.572 26.6314C315.575 26.4428 315.539 26.2555 315.467 26.0813C315.395 25.9071 315.287 25.7497 315.151 25.619C315.015 25.4882 314.854 25.387 314.677 25.3216C314.5 25.2562 314.311 25.228 314.123 25.2389C313.936 25.2329 313.75 25.2644 313.576 25.3317C313.402 25.399 313.243 25.5006 313.109 25.6305C312.975 25.7605 312.868 25.916 312.795 26.088C312.723 26.2599 312.685 26.4447 312.685 26.6314C312.681 26.8249 312.716 27.0173 312.788 27.1967C312.861 27.3761 312.969 27.5387 313.107 27.6745C313.245 27.8103 313.409 27.9163 313.59 27.9861C313.77 28.0559 313.963 28.0879 314.156 28.0801ZM310.653 30.5508C310.082 30.4979 309.511 30.6328 309.024 30.9348C308.538 31.2369 308.163 31.6896 307.957 32.2241L307.71 30.6406H305.981V41.0847H307.946V35.4696C307.946 33.2236 309.294 32.0107 311.641 32.3476V30.6631C311.311 30.6041 310.977 30.574 310.641 30.5732M295.492 35.0653C295.488 34.6467 295.57 34.2318 295.734 33.8463C295.897 33.4608 296.138 33.113 296.441 32.8245C296.744 32.536 297.104 32.3128 297.497 32.169C297.89 32.0251 298.308 31.9636 298.726 31.9882C299.132 31.9687 299.536 32.0346 299.915 32.1815C300.293 32.3284 300.636 32.5531 300.922 32.8411C301.208 33.1291 301.43 33.4738 301.574 33.8531C301.718 34.2324 301.781 34.6377 301.758 35.0429L295.492 35.0653ZM303.802 37.9852H301.893C301.634 38.5602 301.204 39.0413 300.661 39.3628C300.118 39.6844 299.49 39.8308 298.861 39.782C298.419 39.8038 297.978 39.7342 297.565 39.5776C297.151 39.421 296.775 39.1807 296.459 38.8718C296.142 38.5629 295.893 38.1921 295.727 37.7825C295.561 37.373 295.481 36.9335 295.492 36.4915H303.712C303.786 36.0992 303.816 35.7 303.802 35.3011C303.833 34.6392 303.725 33.9781 303.484 33.3608C303.243 32.7435 302.875 32.1837 302.404 31.7178C301.932 31.2519 301.369 30.8902 300.749 30.6563C300.129 30.4224 299.466 30.3214 298.805 30.3599C298.088 30.3373 297.375 30.4659 296.711 30.7371C296.048 31.0083 295.449 31.4161 294.953 31.9341C294.457 32.452 294.076 33.0685 293.834 33.7434C293.592 34.4183 293.495 35.1365 293.549 35.8514C293.493 36.576 293.591 37.3043 293.836 37.9884C294.082 38.6725 294.469 39.297 294.973 39.8209C295.477 40.3448 296.085 40.7562 296.759 41.0282C297.433 41.3002 298.157 41.4266 298.883 41.3991C299.967 41.4825 301.047 41.1943 301.945 40.5819C302.844 39.9695 303.506 39.0695 303.825 38.0301M292.741 30.708H290.685V27.8668H288.72V30.6406H286.676V32.2802H288.72V41.0847H290.685V32.2802H292.741V30.708ZM281.421 41.4441C283.97 41.4441 285.609 40.1863 285.609 38.1985C285.619 37.4777 285.36 36.7792 284.882 36.2393C284.405 35.6993 283.743 35.3568 283.026 35.2787L280.915 34.807C280.309 34.661 279.422 34.4252 279.422 33.4032C279.422 32.3813 280.185 31.9209 281.342 31.9209C282.499 31.9209 283.431 32.561 283.476 33.6503H285.396C285.329 31.7075 283.734 30.4048 281.364 30.4048C278.995 30.4048 277.434 31.6513 277.434 33.5717C277.434 34.9193 278.197 36.0086 280.118 36.4354L281.96 36.8621C282.645 37.0081 283.577 37.2889 283.577 38.3782C283.577 39.4675 282.746 39.928 281.421 39.928C280.095 39.928 279.174 39.3328 279.073 38.2435H277.153C277.265 40.1863 278.972 41.4441 281.421 41.4441ZM273.043 41.1521H275.008V30.708H273.043V41.1521ZM274.02 28.0801C274.211 28.0848 274.402 28.0504 274.58 27.9793C274.757 27.9081 274.919 27.8016 275.054 27.6661C275.19 27.5306 275.296 27.3691 275.368 27.1912C275.439 27.0134 275.473 26.8229 275.469 26.6314C275.472 26.4428 275.436 26.2555 275.364 26.0813C275.292 25.9071 275.184 25.7497 275.048 25.619C274.912 25.4882 274.751 25.387 274.574 25.3216C274.397 25.2562 274.208 25.228 274.02 25.2389C273.833 25.2329 273.646 25.2644 273.471 25.3316C273.297 25.3987 273.137 25.5002 273.002 25.6299C272.867 25.7597 272.759 25.9151 272.685 26.0871C272.611 26.2591 272.573 26.4442 272.571 26.6314C272.568 26.8225 272.603 27.0123 272.675 27.1894C272.747 27.3665 272.854 27.5274 272.989 27.6626C273.124 27.7977 273.285 27.9043 273.462 27.976C273.639 28.0478 273.829 28.0832 274.02 28.0801ZM266.451 30.3262C265.775 30.3092 265.106 30.4629 264.505 30.773C263.904 31.0831 263.392 31.5397 263.014 32.1005L262.79 30.6406H261.161V41.0622H263.127V34.9081C263.103 34.5329 263.16 34.157 263.294 33.8057C263.428 33.4543 263.635 33.1356 263.902 32.8708C264.169 32.6061 264.489 32.4014 264.842 32.2705C265.194 32.1396 265.57 32.0855 265.945 32.1118C267.36 32.1118 268.337 32.9091 268.337 35.0653V41.0847H270.325V34.6161C270.325 31.8535 268.742 30.3374 266.417 30.3374M256.377 41.0847H258.342V30.6406H256.377V41.0847ZM257.365 28.0801C257.557 28.0848 257.747 28.0504 257.925 27.9793C258.103 27.9081 258.265 27.8016 258.4 27.6661C258.536 27.5306 258.642 27.3691 258.713 27.1912C258.784 27.0134 258.819 26.8229 258.814 26.6314C258.818 26.4428 258.782 26.2555 258.71 26.0813C258.637 25.9071 258.53 25.7497 258.394 25.619C258.258 25.4882 258.096 25.387 257.919 25.3216C257.742 25.2562 257.554 25.228 257.365 25.2389C257.179 25.2329 256.993 25.2644 256.819 25.3317C256.645 25.399 256.486 25.5006 256.352 25.6305C256.217 25.7605 256.111 25.916 256.038 26.088C255.965 26.2599 255.928 26.4447 255.928 26.6314C255.925 26.8216 255.96 27.0104 256.031 27.1868C256.102 27.3631 256.208 27.5235 256.342 27.6585C256.476 27.7935 256.635 27.9003 256.811 27.9727C256.987 28.0451 257.175 28.0817 257.365 28.0801ZM249.954 30.3262C249.247 30.3021 248.549 30.489 247.949 30.863C247.349 31.237 246.874 31.7812 246.584 32.4262C246.309 31.7706 245.837 31.2166 245.234 30.8405C244.63 30.4643 243.925 30.2847 243.215 30.3262C242.607 30.3056 242.003 30.4452 241.465 30.731C240.927 31.0167 240.473 31.4386 240.15 31.9545L240.015 30.6294H238.263V41.1071H240.228V34.6947C240.205 34.3562 240.252 34.0167 240.364 33.6967C240.477 33.3768 240.654 33.0833 240.885 32.8341C241.115 32.585 241.393 32.3854 241.703 32.2477C242.013 32.11 242.348 32.037 242.688 32.0332C243.02 32.0177 243.351 32.0762 243.658 32.2043C243.965 32.3325 244.239 32.5271 244.461 32.7743C244.684 33.0214 244.849 33.3148 244.944 33.6333C245.039 33.9518 245.062 34.2875 245.012 34.6161V41.1071H246.955V34.7172C246.929 34.3722 246.974 34.0254 247.089 33.699C247.204 33.3726 247.385 33.0737 247.622 32.8212C247.858 32.5687 248.145 32.3683 248.463 32.2326C248.782 32.097 249.125 32.029 249.471 32.0332C250.818 32.0332 251.717 32.8193 251.717 34.6161V41.1071H253.659V34.1894C253.713 33.6824 253.655 33.17 253.49 32.6878C253.325 32.2056 253.056 31.7652 252.703 31.3974C252.351 31.0296 251.922 30.7432 251.447 30.5582C250.972 30.3731 250.462 30.294 249.954 30.3262ZM226.853 35.8739C226.826 35.3843 226.898 34.8943 227.067 34.4338C227.236 33.9734 227.496 33.5521 227.833 33.1958C228.17 32.8396 228.576 32.5558 229.026 32.3618C229.477 32.1679 229.962 32.0679 230.452 32.0679C230.943 32.0679 231.428 32.1679 231.878 32.3618C232.329 32.5558 232.735 32.8396 233.071 33.1958C233.408 33.5521 233.669 33.9734 233.838 34.4338C234.006 34.8943 234.079 35.3843 234.052 35.8739C234.079 36.3635 234.006 36.8535 233.838 37.3139C233.669 37.7744 233.408 38.1957 233.071 38.5519C232.735 38.9082 232.329 39.192 231.878 39.3859C231.428 39.5799 230.943 39.6799 230.452 39.6799C229.962 39.6799 229.477 39.5799 229.026 39.3859C228.576 39.192 228.17 38.9082 227.833 38.5519C227.496 38.1957 227.236 37.7744 227.067 37.3139C226.898 36.8535 226.826 36.3635 226.853 35.8739ZM224.809 35.8739C224.794 36.9877 225.11 38.0809 225.717 39.0146C226.324 39.9483 227.196 40.6802 228.22 41.1173C229.245 41.5543 230.376 41.6768 231.471 41.4691C232.565 41.2614 233.573 40.7329 234.366 39.9509C235.159 39.1688 235.702 38.1685 235.925 37.0772C236.148 35.9859 236.042 34.8529 235.619 33.8222C235.196 32.7916 234.477 31.91 233.552 31.2895C232.627 30.6689 231.538 30.3375 230.424 30.3374C229.685 30.3063 228.948 30.4276 228.258 30.6938C227.567 30.96 226.94 31.3654 226.413 31.8847C225.886 32.404 225.472 33.0262 225.196 33.7125C224.92 34.3988 224.788 35.1345 224.809 35.8739ZM232.412 29.3604C232.65 29.3578 232.881 29.284 233.077 29.1486C233.272 29.0133 233.423 28.8225 233.509 28.6008C233.595 28.3792 233.612 28.1369 233.559 27.9051C233.506 27.6733 233.385 27.4627 233.212 27.3003C233.038 27.138 232.82 27.0314 232.585 26.9943C232.35 26.9571 232.109 26.9912 231.894 27.092C231.679 27.1928 231.499 27.3558 231.377 27.5599C231.255 27.764 231.197 28 231.21 28.2374C231.21 28.3917 231.241 28.5444 231.303 28.6861C231.364 28.8277 231.454 28.9552 231.567 29.0606C231.679 29.166 231.813 29.247 231.958 29.2986C232.104 29.3501 232.258 29.3712 232.412 29.3604ZM228.436 29.3604C228.674 29.3555 228.904 29.2799 229.098 29.1432C229.292 29.0065 229.441 28.815 229.525 28.5932C229.609 28.3714 229.625 28.1295 229.571 27.8985C229.517 27.6675 229.395 27.458 229.221 27.2968C229.047 27.1356 228.829 27.0301 228.594 26.9938C228.36 26.9576 228.12 26.9922 227.905 27.0933C227.69 27.1944 227.511 27.3573 227.389 27.5611C227.268 27.765 227.21 28.0005 227.224 28.2374C227.223 28.3927 227.255 28.5465 227.317 28.6889C227.379 28.8314 227.47 28.9594 227.584 29.065C227.698 29.1705 227.832 29.2513 227.979 29.3021C228.126 29.353 228.282 29.3728 228.436 29.3604ZM224.09 30.6406H222.024V27.8668H220.115V30.6406H218.082V32.2802H220.115V41.0847H222.08V32.2802H224.147L224.09 30.6406ZM212.759 41.3767C215.32 41.3767 216.948 40.1189 216.948 38.1311C216.96 37.4097 216.702 36.7097 216.224 36.1692C215.746 35.6288 215.083 35.287 214.365 35.2113L212.254 34.7396C211.636 34.5936 210.76 34.3578 210.76 33.3359C210.76 32.3139 211.513 31.8535 212.681 31.8535C213.848 31.8535 214.758 32.4936 214.803 33.5829H216.746C216.746 31.6401 215.117 30.3262 212.748 30.3262C210.378 30.3262 208.806 31.5727 208.806 33.4931C208.806 34.8407 209.57 35.93 211.49 36.3568L213.332 36.7835C214.028 36.9295 214.949 37.2103 214.949 38.2996C214.949 39.3889 214.118 39.8494 212.793 39.8494C211.468 39.8494 210.547 39.2542 210.446 38.1648H208.525C208.649 40.1077 210.356 41.3654 212.793 41.3654M204.393 41.0847H206.358V30.6406H204.393V41.0847ZM205.392 28.0801C205.584 28.0848 205.774 28.0504 205.952 27.9793C206.13 27.9081 206.291 27.8016 206.427 27.6661C206.562 27.5306 206.669 27.3691 206.74 27.1912C206.811 27.0134 206.845 26.8229 206.841 26.6314C206.844 26.4428 206.809 26.2555 206.736 26.0813C206.664 25.9071 206.556 25.7497 206.42 25.619C206.284 25.4882 206.123 25.387 205.946 25.3216C205.769 25.2562 205.58 25.228 205.392 25.2389C205.205 25.2329 205.019 25.2644 204.844 25.3316C204.669 25.3987 204.509 25.5002 204.374 25.6299C204.239 25.7597 204.132 25.9151 204.058 26.0871C203.984 26.2591 203.945 26.4442 203.943 26.6314C203.94 26.8225 203.976 27.0123 204.048 27.1894C204.119 27.3665 204.226 27.5274 204.361 27.6626C204.496 27.7977 204.657 27.9043 204.834 27.976C205.011 28.0478 205.201 28.0832 205.392 28.0801ZM201.888 30.5508C201.318 30.4979 200.746 30.6328 200.26 30.9348C199.773 31.2369 199.399 31.6896 199.193 32.2241L198.946 30.6406H197.228V41.0847H199.193V35.4696C199.193 33.2236 200.541 32.0107 202.888 32.3476V30.6631C202.558 30.6041 202.223 30.574 201.888 30.5732M188.996 39.6135C186.986 39.6135 185.627 38.1199 185.627 35.8739C185.575 35.4013 185.623 34.9231 185.769 34.4705C185.914 34.018 186.154 33.6014 186.473 33.2482C186.791 32.895 187.18 32.6131 187.615 32.4211C188.05 32.2291 188.521 32.1313 188.996 32.1342C189.467 32.132 189.934 32.2287 190.365 32.418C190.797 32.6073 191.184 32.885 191.501 33.2332C191.819 33.5814 192.06 33.9923 192.209 34.4395C192.357 34.8866 192.411 35.3599 192.365 35.829C192.365 38.075 190.995 39.6135 188.929 39.6135M192.747 30.6294L192.578 32.3139C192.158 31.6692 191.576 31.1462 190.89 30.7973C190.204 30.4485 189.439 30.286 188.67 30.3262C185.683 30.3262 183.583 32.5722 183.583 35.8851C183.583 39.198 185.638 41.3654 188.536 41.3654C189.335 41.4001 190.129 41.2206 190.836 40.8455C191.543 40.4703 192.137 39.9132 192.556 39.2317V41.0735H194.409V30.6294H192.747ZM190.681 29.2032C190.834 29.2124 190.987 29.1901 191.131 29.1378C191.275 29.0855 191.407 29.0042 191.519 28.899C191.63 28.7938 191.719 28.6669 191.78 28.5261C191.84 28.3852 191.871 28.2335 191.871 28.0801C191.887 27.9133 191.868 27.745 191.816 27.5859C191.763 27.4269 191.677 27.2806 191.565 27.1565C191.452 27.0324 191.315 26.9332 191.162 26.8654C191.008 26.7975 190.843 26.7625 190.675 26.7625C190.507 26.7625 190.342 26.7975 190.188 26.8654C190.035 26.9332 189.898 27.0324 189.785 27.1565C189.673 27.2806 189.587 27.4269 189.534 27.5859C189.482 27.745 189.463 27.9133 189.479 28.0801C189.479 28.2345 189.51 28.3872 189.571 28.5289C189.633 28.6705 189.722 28.798 189.835 28.9034C189.948 29.0087 190.081 29.0898 190.227 29.1413C190.372 29.1929 190.527 29.214 190.681 29.2032ZM186.705 29.2032C186.859 29.214 187.014 29.1929 187.159 29.1413C187.305 29.0898 187.438 29.0087 187.551 28.9034C187.663 28.798 187.753 28.6705 187.814 28.5289C187.876 28.3872 187.907 28.2345 187.907 28.0801C187.925 27.8368 187.869 27.5936 187.747 27.3824C187.624 27.1712 187.441 27.0019 187.221 26.8964C187.001 26.791 186.754 26.7545 186.513 26.7915C186.272 26.8286 186.047 26.9376 185.869 27.1042C185.691 27.2708 185.567 27.4874 185.514 27.7256C185.46 27.9637 185.48 28.2124 185.57 28.4391C185.661 28.6659 185.817 28.8601 186.02 28.9964C186.222 29.1327 186.461 29.2047 186.705 29.2032ZM176.598 39.6248C174.577 39.6248 173.229 38.2098 173.229 35.93C173.229 33.6503 174.577 32.1455 176.598 32.1455C178.619 32.1455 179.967 33.6166 179.967 35.8851C180.019 36.3577 179.971 36.8359 179.825 37.2885C179.68 37.741 179.44 38.1576 179.121 38.5108C178.803 38.864 178.414 39.1459 177.979 39.3379C177.544 39.5299 177.073 39.6276 176.598 39.6248ZM176.991 30.3262C176.185 30.2909 175.383 30.4735 174.672 30.8549C173.961 31.2363 173.365 31.8024 172.948 32.4936L172.78 30.6406H171.163V45.7564H173.083V39.5237C173.514 40.1326 174.092 40.6222 174.764 40.9463C175.436 41.2704 176.179 41.4185 176.924 41.3767C179.888 41.3767 182 39.1306 182 35.8739C182 32.6171 179.933 30.3262 176.991 30.3262ZM164.739 30.3262C164.032 30.3021 163.334 30.489 162.734 30.863C162.134 31.237 161.659 31.7812 161.37 32.4262C161.088 31.838 160.655 31.3347 160.116 30.9672C159.577 30.5996 158.951 30.3809 158.3 30.333C157.65 30.2851 156.998 30.4099 156.411 30.6946C155.824 30.9793 155.323 31.414 154.957 31.9545L154.811 30.6294H153.059V41.1071H154.98V34.6947C154.957 34.3562 155.003 34.0167 155.116 33.6967C155.229 33.3768 155.406 33.0833 155.636 32.8341C155.866 32.585 156.145 32.3854 156.455 32.2477C156.765 32.11 157.1 32.037 157.439 32.0332C157.771 32.0177 158.103 32.0762 158.409 32.2043C158.716 32.3325 158.991 32.5271 159.213 32.7743C159.436 33.0214 159.6 33.3148 159.696 33.6333C159.791 33.9518 159.814 34.2875 159.764 34.6161V41.1071H161.718V34.7172C161.691 34.3722 161.737 34.0254 161.852 33.699C161.967 33.3726 162.148 33.0737 162.385 32.8212C162.621 32.5687 162.908 32.3683 163.226 32.2326C163.544 32.097 163.888 32.029 164.234 32.0332C165.581 32.0332 166.48 32.8193 166.48 34.6161V41.1071H168.456V34.1894C168.51 33.6814 168.451 33.168 168.286 32.6849C168.12 32.2019 167.85 31.7609 167.496 31.3929C167.142 31.0248 166.712 30.7387 166.236 30.5544C165.759 30.3702 165.248 30.2923 164.739 30.3262ZM140.324 25.8341L145.625 34.8182V41.0735H147.691V34.8182L152.925 25.8341H150.679L148.646 29.3828C147.602 31.1909 146.703 32.8417 146.703 32.8417C146.703 32.8417 145.895 31.2583 144.805 29.3828L142.773 25.8341H140.324Z" fill="white"/>
</svg>
