<svg width="276" height="277" xmlns="http://www.w3.org/2000/svg" xmlns:xlink="http://www.w3.org/1999/xlink" xml:space="preserve" overflow="hidden"><defs><clipPath id="clip0"><rect x="226" y="389" width="276" height="277"/></clipPath></defs><g clip-path="url(#clip0)" transform="translate(-226 -389)"><path d="M215.625 74.5286C215.509 73.0279 214.255 71.8704 212.75 71.875L189.75 71.875 189.75 51.4625C189.726 30.9896 173.135 14.3988 152.662 14.375L152.088 14.375C144.849 14.3722 137.77 16.4999 131.732 20.493 130.094 20.261 128.442 20.1381 126.787 20.125L126.213 20.125C105.74 20.1488 89.1489 36.7396 89.125 57.2125L89.125 71.875 63.25 71.875C61.7291 71.8721 60.4693 73.054 60.375 74.5717L48.875 258.572C48.7767 260.156 49.9816 261.521 51.5663 261.62 51.6275 261.623 51.6888 261.625 51.75 261.625L189.75 261.625C190.509 261.618 191.234 261.307 191.762 260.762L191.762 260.762 226.262 226.262C226.856 225.669 227.161 224.845 227.096 224.008ZM152.088 20.125 152.662 20.125C169.961 20.1456 183.979 34.1639 184 51.4625L184 71.875 163.875 71.875 163.875 57.2125C163.849 41.8209 154.326 28.0425 139.938 22.5774 143.782 20.9545 147.914 20.1205 152.088 20.125ZM133.176 26.5334C147.698 29.5777 158.105 42.3746 158.125 57.2125L158.125 71.875 120.75 71.875 120.75 51.4625C120.759 41.6654 125.358 32.4383 133.176 26.5334ZM94.875 57.2125C94.8937 40.2879 108.347 26.4363 125.264 25.9239 118.678 32.7954 115.001 41.9448 115 51.4625L115 71.875 94.875 71.875ZM54.809 255.875 65.9496 77.625 89.125 77.625 89.125 109.25C89.125 110.838 90.4121 112.125 92 112.125 93.5879 112.125 94.875 110.838 94.875 109.25L94.875 77.625 158.125 77.625 158.125 109.25C158.125 110.838 159.412 112.125 161 112.125 162.588 112.125 163.875 110.838 163.875 109.25L163.875 77.625 198.191 77.625 187.05 255.875ZM193.096 251.275 203.95 77.625 210.088 77.625 221.283 223.152 193.148 251.275C193.117 251.315 193.096 251.307 193.099 251.275Z" fill="#FFFFFF" transform="matrix(-1 1.22465e-16 1.22908e-16 1.00362 502 389)"/></g></svg>