<svg id="visual" viewBox="0 0 900 450" width="900" height="450" xmlns="http://www.w3.org/2000/svg" xmlns:xlink="http://www.w3.org/1999/xlink" version="1.1"><path d="M0 91L30 85C60 79 120 67 180 59.5C240 52 300 49 360 52.8C420 56.7 480 67.3 540 67.3C600 67.3 660 56.7 720 52.8C780 49 840 52 870 53.5L900 55L900 0L870 0C840 0 780 0 720 0C660 0 600 0 540 0C480 0 420 0 360 0C300 0 240 0 180 0C120 0 60 0 30 0L0 0Z" fill="#f7f7f2"></path><path d="M0 235L30 227.5C60 220 120 205 180 193C240 181 300 172 360 182.5C420 193 480 223 540 237.3C600 251.7 660 250.3 720 231.7C780 213 840 177 870 159L900 141L900 53L870 51.5C840 50 780 47 720 50.8C660 54.7 600 65.3 540 65.3C480 65.3 420 54.7 360 50.8C300 47 240 50 180 57.5C120 65 60 77 30 83L0 89Z" fill="#b1b4aa"></path><path d="M0 334L30 322C60 310 120 286 180 267.3C240 248.7 300 235.3 360 242.8C420 250.3 480 278.7 540 302.7C600 326.7 660 346.3 720 340.3C780 334.3 840 302.7 870 286.8L900 271L900 139L870 157C840 175 780 211 720 229.7C660 248.3 600 249.7 540 235.3C480 221 420 191 360 180.5C300 170 240 179 180 191C120 203 60 218 30 225.5L0 233Z" fill="#6e7768"></path><path d="M0 451L30 451C60 451 120 451 180 451C240 451 300 451 360 451C420 451 480 451 540 451C600 451 660 451 720 451C780 451 840 451 870 451L900 451L900 269L870 284.8C840 300.7 780 332.3 720 338.3C660 344.3 600 324.7 540 300.7C480 276.7 420 248.3 360 240.8C300 233.3 240 246.7 180 265.3C120 284 60 308 30 320L0 332Z" fill="#2e3f30"></path></svg>