<svg width="276" height="276" xmlns="http://www.w3.org/2000/svg" xmlns:xlink="http://www.w3.org/1999/xlink" xml:space="preserve" overflow="hidden"><defs><clipPath id="clip0"><rect x="33" y="339" width="276" height="276"/></clipPath></defs><g clip-path="url(#clip0)" transform="translate(-33 -339)"><path d="M138 248.113C119.312 248.113 102.925 234.887 98.9 216.775 94.5875 198.375 103.787 179.688 120.75 171.637L120.75 45.1375C120.75 35.65 128.512 27.8875 138 27.8875 147.488 27.8875 155.25 35.65 155.25 45.1375L155.25 171.637C172.213 179.688 181.125 198.375 177.1 216.775 172.787 234.887 156.688 247.825 138 248.113L138 248.113ZM172.5 161.863 172.5 45.1375C172.5 26.1625 156.975 10.6375 138 10.6375 119.025 10.6375 103.5 25.875 103.5 45.1375L103.5 161.863C83.6625 176.812 75.6125 202.688 83.375 225.975 91.1375 249.55 113.275 265.363 138 265.363 162.725 265.363 184.863 249.55 192.625 225.975 200.387 202.688 192.338 176.812 172.5 161.863Z" fill="#FFFFFF" transform="matrix(-1 1.22465e-16 1.22465e-16 1 309 339)"/><path d="M143.75 179.688 143.75 110.112 132.25 110.112 132.25 179.688C117.875 182.562 107.812 196.075 109.537 210.738 110.975 225.4 123.338 236.613 138 236.613 152.662 236.613 165.025 225.4 166.463 210.738 168.188 196.075 158.125 182.562 143.75 179.688Z" fill="#FFFFFF" transform="matrix(-1 1.22465e-16 1.22465e-16 1 309 339)"/></g></svg>