<svg width="276" height="276" xmlns="http://www.w3.org/2000/svg" xmlns:xlink="http://www.w3.org/1999/xlink" xml:space="preserve" overflow="hidden"><defs><clipPath id="clip0"><rect x="761" y="4" width="276" height="276"/></clipPath></defs><g clip-path="url(#clip0)" transform="translate(-761 -4)"><path d="M260.475 230 148.062 34.5C143.75 26.7375 132.537 26.7375 128.225 34.5L15.525 230C11.2125 237.762 16.675 247.25 25.5875 247.25L138 247.25 250.412 247.25C259.325 247.25 264.788 237.762 260.475 230ZM119.025 221.662 135.412 155.25 111.838 155.25 123.338 83.375 157.838 83.375 142.6 138 166.75 138 119.025 221.662Z" fill="#FFFFFF" transform="matrix(-1 1.22465e-16 1.22465e-16 1 1037 4)"/></g></svg>