<svg width="277" height="277" xmlns="http://www.w3.org/2000/svg" xmlns:xlink="http://www.w3.org/1999/xlink" xml:space="preserve" overflow="hidden"><defs><clipPath id="clip0"><rect x="707" y="306" width="277" height="277"/></clipPath></defs><g clip-path="url(#clip0)" transform="translate(-707 -306)"><path d="M158.75 89.4479 147.188 89.4479 147.188 85.8815 141.911 75.3238C140.938 73.364 138.936 72.1273 136.749 72.1354L129.876 72.1354 129.876 54.8229 155.844 54.8229C159.031 54.8229 161.615 52.2393 161.615 49.0521L161.615 43.2812C161.615 40.094 159.031 37.5104 155.844 37.5104L134.307 37.5104 130.248 31.4251C129.18 29.8165 127.377 28.8509 125.446 28.8542L111.224 28.8542C109.294 28.8509 107.49 29.8165 106.423 31.4251L102.363 37.5104 80.8234 37.5104C77.6362 37.5104 75.0526 40.094 75.0526 43.2812L75.0526 49.0521C75.0526 52.2393 77.6362 54.8229 80.8234 54.8229L106.792 54.8229 106.792 72.1354 99.922 72.1354C97.7343 72.1273 95.7324 73.364 94.76 75.3238L89.4797 85.8815 89.4797 89.4479 54.8547 89.4479 54.8547 85.4603C54.8633 83.2723 53.6266 81.2701 51.6663 80.2983L41.1085 75.0208 28.8859 75.0208 28.8859 150.042 41.1085 150.042 51.6663 144.764C53.6266 143.792 54.8633 141.79 54.8547 139.602L54.8547 135.615 158.75 135.615C173.085 135.63 184.703 147.248 184.719 161.583L184.719 167.354 230.885 167.354 230.885 161.583C230.841 121.763 198.571 89.4924 158.75 89.4479ZM155.844 49.0521 135.646 49.0521 135.646 43.2812 155.844 43.2812ZM111.224 34.625 125.446 34.625 129.876 41.2615 129.876 49.0521 106.792 49.0521 106.792 41.2615ZM80.8234 43.2812 101.021 43.2812 101.021 49.0521 80.8234 49.0521ZM112.563 54.8229 124.105 54.8229 124.105 72.1354 112.563 72.1354ZM95.2505 87.2435 99.922 77.9062 136.749 77.9062 141.417 87.2435 141.417 89.4479 95.2505 89.4479ZM49.0838 139.602 39.7495 144.271 34.6567 144.271 34.6567 80.7917 39.7466 80.7917 49.0838 85.4603 49.0838 139.602ZM190.489 161.583C190.444 144.073 176.26 129.89 158.75 129.844L54.8547 129.844 54.8547 95.2188 158.73 95.2188C195.339 95.3218 224.991 124.974 225.094 161.583Z" fill="#FFFFFF" transform="matrix(-1 1.22465e-16 1.22465e-16 1 984 306)"/><path d="M188.614 228.236C188.489 239.102 197.191 248.013 208.056 248.146L208.301 248.146C219.077 248.142 227.847 239.476 227.98 228.701L227.98 228.236C227.98 215.567 208.298 187.598 208.298 187.598 208.298 187.598 188.614 215.633 188.614 228.236ZM222.209 228.309 222.209 228.643C222.083 236.243 215.902 242.346 208.301 242.375L208.128 242.375C200.429 242.264 194.277 235.935 194.385 228.236 194.385 221.978 201.691 208.437 208.304 198.009 214.912 208.396 222.209 221.923 222.209 228.294Z" fill="#FFFFFF" transform="matrix(-1 1.22465e-16 1.22465e-16 1 984 306)"/></g></svg>